<svg width="197" height="122" viewBox="0 0 197 122" fill="none" xmlns="http://www.w3.org/2000/svg">
<g clip-path="url(#clip0_14174_11981)">
<g clip-path="url(#clip1_14174_11981)">
<path d="M100.69 22.8249H78.0986V0.171875H100.69V22.8249Z" fill="white"/>
<path d="M125.635 22.8249H103.043V0.171875H125.635V22.8249Z" fill="white"/>
<path d="M100.69 47.8457H78.0986V25.1934H100.69V47.8457Z" fill="white"/>
<path d="M125.635 47.8457H103.043V25.1934H125.635V47.8457Z" fill="white"/>
<path d="M169.065 66.9387V63.4991H164.806V58.1523L164.662 58.1964L160.662 59.424L160.583 59.4477V63.4991H154.268V61.2428C154.268 60.1921 154.503 59.3877 154.964 58.8515C155.423 58.3217 156.079 58.0525 156.916 58.0525C157.517 58.0525 158.141 58.1951 158.767 58.4748L158.924 58.545V54.9227L158.85 54.8952C158.264 54.684 157.469 54.5781 156.484 54.5781C155.242 54.5781 154.113 54.8492 153.128 55.3864C152.143 55.9243 151.368 56.6927 150.826 57.6686C150.284 58.6444 150.01 59.7705 150.01 61.0173V63.4984H147.044V66.9378H150.01V81.4276H154.268V66.9378H160.583V76.1461C160.583 79.9382 162.367 81.8601 165.885 81.8601C166.464 81.8601 167.072 81.792 167.693 81.6585C168.326 81.5218 168.757 81.3855 169.009 81.2399L169.066 81.2066V77.7357L168.892 77.8504C168.662 78.0049 168.373 78.131 168.035 78.2246C167.697 78.32 167.413 78.3678 167.194 78.3678C166.371 78.3678 165.762 78.1457 165.383 77.7061C165 77.2622 164.806 76.4865 164.806 75.4025V66.9374H169.065L169.065 66.9387ZM137.535 78.3697C135.99 78.3697 134.771 77.8556 133.913 76.8434C133.049 75.8266 132.611 74.376 132.611 72.5337C132.611 70.6325 133.049 69.1448 133.914 68.1097C134.772 67.0806 135.98 66.5591 137.5 66.5591C138.977 66.5591 140.153 67.0579 140.994 68.0412C141.841 69.0301 142.269 70.5068 142.269 72.4298C142.269 74.3765 141.866 75.8722 141.07 76.8725C140.279 77.8655 139.09 78.3697 137.535 78.3697ZM137.725 63.0675C134.776 63.0675 132.434 63.9337 130.765 65.6426C129.097 67.3511 128.25 69.7158 128.25 72.6713C128.25 75.4782 129.076 77.7362 130.705 79.3811C132.334 81.0269 134.551 81.8605 137.293 81.8605C140.151 81.8605 142.446 80.9828 144.116 79.2502C145.784 77.5197 146.63 75.1775 146.63 72.2911C146.63 69.4408 145.836 67.1653 144.271 65.5313C142.705 63.8961 140.503 63.0675 137.725 63.0675ZM121.385 63.0675C119.38 63.0675 117.721 63.5818 116.453 64.596C115.178 65.6165 114.531 66.9544 114.531 68.5733C114.531 69.4151 114.671 70.1627 114.946 70.7971C115.222 71.4331 115.65 71.9932 116.218 72.4637C116.782 72.9298 117.653 73.4185 118.807 73.9153C119.776 74.3158 120.499 74.6541 120.958 74.9204C121.408 75.182 121.726 75.4451 121.906 75.7009C122.081 75.9512 122.17 76.2938 122.17 76.717C122.17 77.9211 121.271 78.5071 119.419 78.5071C118.733 78.5071 117.95 78.3637 117.091 78.0803C116.24 77.8007 115.436 77.3919 114.708 76.868L114.531 76.7414V80.8506L114.597 80.8815C115.199 81.1608 115.959 81.3959 116.854 81.5801C117.747 81.7653 118.559 81.8601 119.265 81.8601C121.441 81.8601 123.193 81.3425 124.472 80.3229C125.759 79.2958 126.411 77.9256 126.411 76.2502C126.411 75.0414 126.06 74.0052 125.368 73.1698C124.681 72.3408 123.488 71.5793 121.824 70.9064C120.499 70.3727 119.649 69.9298 119.299 69.59C118.961 69.2615 118.79 68.7968 118.79 68.2084C118.79 67.6874 119.001 67.2694 119.436 66.9309C119.874 66.5915 120.483 66.4183 121.248 66.4183C121.957 66.4183 122.683 66.5308 123.405 66.7507C124.126 66.9713 124.76 67.2662 125.289 67.6269L125.463 67.7459V63.8475L125.396 63.8181C124.907 63.6082 124.264 63.4284 123.483 63.2829C122.705 63.1405 121.999 63.0675 121.385 63.0675ZM103.432 78.3697C101.887 78.3697 100.668 77.8556 99.8104 76.8434C98.946 75.8266 98.5089 74.3765 98.5089 72.5337C98.5089 70.6325 98.9465 69.1448 99.811 68.1097C100.669 67.0806 101.876 66.5591 103.398 66.5591C104.874 66.5591 106.049 67.0579 106.891 68.0412C107.737 69.0301 108.166 70.5068 108.166 72.4298C108.166 74.3765 107.763 75.8722 106.966 76.8725C106.176 77.8655 104.987 78.3697 103.432 78.3697ZM103.622 63.0675C100.673 63.0675 98.331 63.9337 96.6627 65.6426C94.994 67.3511 94.1469 69.7158 94.1469 72.6713C94.1469 75.4795 94.9737 77.7362 96.602 79.3811C98.231 81.0269 100.448 81.8605 103.19 81.8605C106.048 81.8605 108.344 80.9828 110.013 79.2502C111.681 77.5197 112.527 75.1775 112.527 72.2911C112.527 69.4408 111.733 67.1653 110.168 65.5313C108.601 63.8961 106.399 63.0675 103.622 63.0675ZM87.6836 66.6043V63.4991H83.4782V81.4274H87.6836V72.257C87.6836 70.6971 88.0362 69.4166 88.7317 68.4484C89.4189 67.4923 90.334 67.0076 91.4523 67.0076C91.831 67.0076 92.2561 67.0704 92.7167 67.1942C93.1725 67.3174 93.5024 67.4508 93.6971 67.5919L93.874 67.7202V63.4686L93.8061 63.4386C93.4145 63.2721 92.8602 63.1878 92.1589 63.1878C91.1022 63.1878 90.1561 63.528 89.3456 64.199C88.6349 64.7885 88.1207 65.5968 87.7273 66.6043H87.6836ZM75.9461 63.0675C74.0165 63.0675 72.2959 63.4822 70.8314 64.3003C69.3645 65.1196 68.2305 66.2906 67.4584 67.7788C66.6906 69.263 66.3 70.9967 66.3 72.9311C66.3 74.6255 66.6783 76.1793 67.4261 77.5499C68.1747 78.9223 69.2333 79.9954 70.5733 80.7407C71.9113 81.4844 73.459 81.8614 75.1714 81.8614C77.17 81.8614 78.8766 81.4605 80.245 80.6701L80.3002 80.6385V76.7747L80.1237 76.9043C79.4941 77.3622 78.8006 77.7244 78.0655 77.9792C77.3221 78.2388 76.6445 78.3708 76.0504 78.3708C74.4002 78.3708 73.0749 77.8532 72.1134 76.8321C71.1494 75.81 70.661 74.375 70.661 72.5684C70.661 70.7509 71.1705 69.2792 72.1752 68.1929C73.1761 67.1091 74.504 66.5598 76.1202 66.5598C77.5024 66.5598 78.8497 67.0292 80.1242 67.9565L80.3002 68.0849V64.013L80.2429 63.9812C79.7633 63.7121 79.1093 63.4898 78.2973 63.3211C77.4886 63.1524 76.6975 63.0675 75.9461 63.0675ZM63.4029 63.4991H59.1971V81.4274H63.4029V63.4991ZM61.3428 55.8623C60.6506 55.8623 60.0472 56.0984 59.5515 56.5668C59.0532 57.0368 58.8005 57.6278 58.8005 58.3253C58.8005 59.012 59.0504 59.5927 59.5435 60.0491C60.0334 60.5047 60.6392 60.736 61.3432 60.736C62.0479 60.736 62.6558 60.5056 63.1515 60.05C63.6507 59.5927 63.9038 59.0114 63.9038 58.3253C63.9038 57.6522 63.6578 57.0675 63.1722 56.5858C62.6866 56.1053 62.0714 55.8623 61.3428 55.8623ZM50.8494 62.1769V81.4274H55.1418V56.4112H49.2011L41.6503 74.993L34.3223 56.4112H28.1396V81.4276H32.1736V62.1747H32.3121L40.0501 81.4274H43.0939L50.7111 62.1771L50.8494 62.1769Z" fill="white"/>
<path d="M98.5703 91.3816C75.691 91.3816 52.8116 91.3816 29.9322 91.3816C29.5518 91.3816 29.0738 91.4581 29.0684 90.8926C29.063 90.2629 29.587 90.3844 29.9742 90.3844C47.1222 90.3803 64.2702 90.3776 81.4196 90.379C109.94 90.3803 138.461 90.3858 166.981 90.3899C167.229 90.3899 167.478 90.3899 167.723 90.4199C167.994 90.4527 168.202 90.5962 168.189 90.9035C168.175 91.2108 167.946 91.3269 167.681 91.3543C167.435 91.3802 167.185 91.3775 166.938 91.3775C144.149 91.3775 121.359 91.3775 98.5703 91.3775V91.3816Z" fill="white"/>
<path d="M109.568 118.226C109.568 116.16 109.564 114.301 109.572 112.442C109.572 112.161 109.456 111.78 109.787 111.644C110.184 111.482 110.631 111.505 111.042 111.651C111.27 111.732 111.262 111.975 111.262 112.18C111.262 115.001 111.256 117.821 111.262 120.643C111.262 121.162 111.009 121.333 110.539 121.28C110.066 121.227 109.699 121.003 109.399 120.626C108.014 118.889 106.616 117.164 105.224 115.434C105.139 115.327 105.062 115.215 104.974 115.111C104.889 115.01 104.805 114.848 104.663 114.886C104.459 114.939 104.516 115.144 104.529 115.293C104.673 116.974 104.561 118.657 104.583 120.339C104.594 121.246 104.462 121.333 103.558 121.296C103.03 121.274 102.846 121.018 102.847 120.523C102.854 117.75 102.756 114.976 102.908 112.203C102.946 111.497 103.189 111.332 103.864 111.523C104.385 111.67 104.668 112.095 104.975 112.479C106.251 114.07 107.51 115.675 108.777 117.274C108.987 117.539 109.209 117.794 109.569 118.226H109.568Z" fill="white"/>
<path d="M121.496 116.375C121.496 114.989 121.505 113.601 121.49 112.215C121.485 111.667 121.699 111.435 122.254 111.45C123.515 111.484 124.778 111.464 126.038 111.5C127.455 111.541 128.256 112.428 128.691 113.667C129.124 114.903 128.882 116.039 127.934 116.987C127.117 117.803 127.124 117.806 127.74 118.79C128.137 119.424 128.528 120.062 128.921 120.7C129.166 121.098 129.037 121.289 128.592 121.308C127.923 121.337 127.362 121.192 126.989 120.539C126.573 119.811 126.097 119.118 125.632 118.42C125.387 118.052 123.741 117.75 123.376 117.985C123.167 118.12 123.19 118.334 123.194 118.534C123.207 119.169 123.219 119.805 123.256 120.441C123.286 120.976 123.16 121.312 122.529 121.311C121.658 121.308 121.517 121.246 121.508 120.535C121.492 119.148 121.503 117.761 121.503 116.374H121.497L121.496 116.375ZM124.664 116.447C125.024 116.447 125.39 116.485 125.745 116.44C126.641 116.326 127.196 115.632 127.147 114.739C127.085 113.604 126.562 113.011 125.581 112.989C124.971 112.976 124.362 113 123.754 112.985C123.355 112.976 123.171 113.127 123.19 113.544C123.214 114.089 123.19 114.637 123.229 115.18C123.324 116.486 123.333 116.486 124.663 116.447H124.664Z" fill="white"/>
<path d="M85.8621 116.268C85.8621 114.903 85.8662 113.539 85.8594 112.174C85.858 111.797 85.9041 111.472 86.378 111.477C87.7509 111.492 89.1252 111.375 90.4967 111.514C91.7871 111.645 92.7132 112.432 93.0923 113.739C93.4917 115.118 93.1681 116.426 92.0944 117.157C91.5109 117.554 91.4919 117.832 91.8697 118.369C92.3761 119.09 92.8147 119.863 93.2507 120.632C93.5513 121.163 93.4443 121.318 92.8445 121.318C92.2745 121.318 91.7966 121.171 91.473 120.626C91.079 119.965 90.6267 119.338 90.2029 118.695C89.8265 118.124 88.4685 117.699 87.8579 117.955C87.5952 118.064 87.5735 118.283 87.5735 118.515C87.5695 119.174 87.537 119.836 87.5776 120.493C87.6182 121.147 87.3068 121.3 86.73 121.32C86.114 121.342 85.8716 121.109 85.8784 120.495C85.896 119.086 85.8838 117.676 85.8838 116.265H85.8621V116.268ZM87.5735 114.706C87.5735 115.093 87.5898 115.481 87.5695 115.866C87.5464 116.298 87.7089 116.499 88.153 116.481C88.7393 116.459 89.3256 116.485 89.9118 116.459C91.0762 116.406 91.7668 115.488 91.4838 114.347C91.2509 113.407 90.8799 112.916 89.2863 112.973C87.5722 113.035 87.5708 112.987 87.5735 114.706Z" fill="white"/>
<path d="M153.762 101.308C153.762 102.943 153.756 104.578 153.766 106.213C153.769 106.686 153.746 107.078 153.113 107.081C152.524 107.083 152.244 106.864 152.248 106.242C152.262 103.786 152.245 101.329 152.258 98.8728C152.26 98.2677 152.49 98.1311 153.09 98.2691C153.468 98.3551 153.713 98.601 153.946 98.8919C155.327 100.627 156.715 102.355 158.203 104.212C158.203 103.712 158.203 103.344 158.203 102.975C158.203 101.655 158.219 100.336 158.196 99.0176C158.187 98.4343 158.421 98.2021 158.992 98.1898C159.6 98.1775 159.748 98.4671 159.757 99.0272C159.802 101.413 159.901 103.8 159.744 106.186C159.723 106.491 159.849 106.866 159.463 107.022C159.064 107.183 158.694 107.022 158.41 106.745C158.054 106.399 157.725 106.021 157.413 105.631C156.307 104.253 155.213 102.865 154.118 101.478C154.05 101.392 154.015 101.278 153.965 101.177C153.897 101.221 153.831 101.265 153.763 101.308H153.762Z" fill="white"/>
<path d="M115.818 104.007C115.818 103.446 115.816 102.887 115.818 102.328C115.822 101.169 115.842 100.008 115.83 98.8479C115.823 98.2592 116.171 98.1909 116.626 98.1977C117.066 98.2045 117.363 98.3138 117.36 98.8506C117.345 101.353 117.349 103.855 117.341 106.358C117.341 106.632 117.341 106.932 117.017 107.041C116.641 107.168 116.281 107.061 116.017 106.792C115.621 106.389 115.263 105.948 114.907 105.508C113.752 104.085 112.603 102.655 111.374 101.129C111.374 102.136 111.377 103.024 111.374 103.911C111.371 104.731 111.358 105.549 111.355 106.369C111.354 106.829 111.185 107.108 110.677 107.082C110.212 107.059 109.832 106.99 109.836 106.37C109.854 103.845 109.851 101.32 109.851 98.7946C109.851 98.3165 110.047 98.1321 110.526 98.2414C110.942 98.337 111.264 98.5446 111.53 98.882C112.79 100.486 114.058 102.084 115.326 103.681C115.433 103.814 115.504 104.004 115.819 104.007H115.818Z" fill="white"/>
<path d="M113.327 116.373C113.327 115.009 113.343 113.644 113.319 112.28C113.309 111.728 113.484 111.517 114.057 111.526C115.791 111.553 117.526 111.536 119.26 111.516C119.73 111.51 120.052 111.565 120.03 112.162C120.01 112.722 119.814 112.986 119.219 112.972C118.048 112.943 116.874 112.982 115.703 112.961C115.208 112.952 115.021 113.136 115.027 113.637C115.059 115.862 114.719 115.513 116.85 115.539C117.481 115.547 118.112 115.541 118.744 115.535C119.265 115.528 119.37 115.842 119.378 116.29C119.386 116.756 119.195 116.955 118.737 116.95C117.745 116.937 116.752 116.965 115.763 116.926C115.194 116.905 114.99 117.122 115.027 117.68C115.06 118.156 115.052 118.637 115.027 119.112C115.002 119.619 115.225 119.798 115.71 119.792C116.927 119.777 118.144 119.809 119.361 119.784C119.99 119.772 120.197 120.057 120.177 120.653C120.162 121.084 119.984 121.278 119.566 121.28C117.695 121.282 115.824 121.285 113.952 121.292C113.484 121.293 113.336 121.056 113.342 120.605C113.359 119.195 113.349 117.784 113.349 116.375C113.342 116.375 113.335 116.375 113.327 116.375V116.373Z" fill="white"/>
<path d="M71.0539 111.489C71.7295 111.489 72.4119 111.432 73.0808 111.5C74.7042 111.667 75.9336 113.196 75.8713 114.881C75.8239 116.174 74.6406 118.017 72.898 117.929C72.2968 117.899 71.6849 118.006 71.0783 117.921C70.5692 117.85 70.3214 118.021 70.3485 118.585C70.3823 119.267 70.339 119.951 70.3634 120.633C70.3864 121.284 69.9667 121.295 69.5117 121.295C69.0609 121.295 68.6723 121.301 68.6493 120.645C68.5518 117.824 68.5964 115.004 68.5626 112.183C68.5572 111.664 68.7738 111.434 69.2937 111.452C69.88 111.471 70.4663 111.456 71.0525 111.456C71.0525 111.467 71.0525 111.478 71.0525 111.489H71.0539ZM70.3485 114.659C70.3959 116.801 70.0614 116.442 72.1208 116.473C72.2562 116.476 72.3916 116.475 72.527 116.469C73.5763 116.423 74.1179 115.808 74.103 114.685C74.0881 113.55 73.5939 113.018 72.5297 112.99C72.3497 112.986 72.1696 112.987 71.9881 112.987C70.9014 112.987 70.3553 113.545 70.3498 114.659H70.3485Z" fill="white"/>
<path d="M80.7339 102.596C80.7339 101.37 80.7475 100.143 80.7272 98.9164C80.719 98.3878 80.933 98.172 81.4475 98.1884C82.4589 98.2198 83.473 98.1651 84.4831 98.2785C86.3759 98.4902 87.7516 99.7114 88.0508 101.62C88.2972 103.195 88.1388 104.704 86.908 105.913C86.3001 106.51 85.5866 106.88 84.7579 106.947C83.6829 107.034 82.5997 107.034 81.5206 107.09C80.9316 107.12 80.7177 106.844 80.7258 106.276C80.7421 105.05 80.7312 103.823 80.7312 102.596H80.7339ZM83.5421 105.691C85.1573 105.66 85.9765 105.167 86.3786 103.984C87.233 101.467 85.9359 99.6021 83.3281 99.5953C83.1927 99.5953 83.056 99.6089 82.9219 99.5953C82.4264 99.5475 82.2423 99.7701 82.2409 100.267C82.2395 101.609 82.2504 102.949 82.1827 104.291C82.1096 105.716 82.1461 105.717 83.5421 105.691Z" fill="white"/>
<path d="M44.5767 103.93C44.6729 102.275 44.3994 100.619 44.5402 98.9595C44.5903 98.364 44.7785 98.1564 45.3499 98.1864C46.406 98.2424 47.4648 98.2574 48.5222 98.2943C49.7245 98.3367 50.522 98.9636 50.8984 100.156C51.3222 101.499 51.0704 102.694 50.0766 103.335C49.493 103.71 49.5715 103.992 49.8924 104.455C50.3176 105.068 50.698 105.714 51.088 106.352C51.1895 106.519 51.3655 106.698 51.241 106.909C51.1056 107.143 50.8497 107.094 50.6276 107.086C50.1483 107.069 49.7652 106.89 49.4984 106.459C49.1166 105.843 48.7091 105.242 48.3137 104.635C48.0023 104.158 46.6605 103.858 46.1893 104.156C46.0025 104.273 46.0106 104.457 46.0106 104.636C46.012 105.226 45.9916 105.819 46.0336 106.408C46.0729 106.961 45.7669 107.062 45.3323 107.072C44.899 107.081 44.5686 106.989 44.574 106.45C44.5808 105.61 44.5754 104.769 44.5754 103.929L44.5767 103.93ZM46.0065 100.944C46.0065 101.301 46.0038 101.529 46.0065 101.756C46.016 102.603 46.0702 102.665 46.8812 102.65C47.3321 102.641 47.7816 102.597 48.2311 102.571C49.1938 102.516 49.7828 101.659 49.5079 100.707C49.2479 99.8064 48.8688 99.5906 47.4824 99.5947C45.7574 99.5988 46.0296 99.4103 46.0052 100.944H46.0065Z" fill="white"/>
<path d="M83.7569 121.308C83.264 121.326 82.9255 121.062 82.7143 120.516C82.0238 118.724 82.0102 118.707 80.1106 118.72C77.8928 118.733 78.5102 118.348 77.6505 120.49C77.4812 120.912 77.3499 121.274 76.7961 121.295C75.7711 121.331 75.6547 121.177 76.0298 120.218C77.0466 117.616 78.0526 115.01 79.0613 112.405C79.2197 111.994 79.3862 111.595 79.8804 111.492C80.4451 111.375 80.9054 111.458 81.1464 112.08C82.2269 114.877 83.3222 117.669 84.3986 120.468C84.6735 121.183 84.5503 121.342 83.7555 121.308H83.7569ZM80.1011 117.432C80.4153 117.432 80.7294 117.425 81.0435 117.433C81.4118 117.444 81.5296 117.3 81.4037 116.936C81.0746 115.973 80.7632 115.004 80.4369 114.041C80.4031 113.943 80.3273 113.813 80.2447 113.79C80.0781 113.742 80.0253 113.91 79.9779 114.032C79.718 114.707 79.4743 115.388 79.2062 116.06C78.6646 117.419 78.6592 117.417 80.0998 117.43L80.1011 117.432Z" fill="white"/>
<path d="M108.689 102.71C108.686 105.132 106.77 107.081 104.446 107.112C101.614 107.15 100.217 104.505 100.227 102.624C100.239 100.209 102.137 98.1557 104.355 98.168C106.808 98.1817 108.692 100.155 108.689 102.71ZM107.04 102.632C107.03 102.405 107.028 102.177 107.009 101.95C106.927 100.959 106.085 99.9356 105.136 99.6651C104.141 99.381 103.123 99.7074 102.485 100.56C101.855 101.403 101.644 102.374 101.842 103.404C102.235 105.447 104.348 106.398 105.901 105.259C106.795 104.604 107.105 103.704 107.038 102.632H107.04Z" fill="white"/>
<path d="M168.891 104.884C168.891 105.385 168.892 105.885 168.891 106.386C168.89 106.736 168.789 107.024 168.389 107.075C168.045 107.119 167.737 107.049 167.658 106.651C167.582 106.273 167.391 106.369 167.173 106.494C164.615 107.974 162.288 106.564 161.398 104.417C160.437 102.095 161.475 99.3627 163.742 98.4134C165.256 97.7796 167.329 98.2426 168.202 99.4269C168.443 99.7534 168.716 100.13 168.313 100.518C167.931 100.886 167.538 100.801 167.18 100.446C167.067 100.334 166.944 100.233 166.821 100.134C166.042 99.5116 165.169 99.416 164.27 99.7616C163.106 100.208 162.709 101.23 162.598 102.36C162.469 103.667 162.955 104.758 164.101 105.419C165.107 106 166.107 105.749 167.028 105.115C167.234 104.973 167.41 104.795 167.525 104.566C167.766 104.086 167.602 103.772 167.067 103.715C166.799 103.686 166.526 103.702 166.258 103.672C165.868 103.629 165.738 103.364 165.74 102.999C165.743 102.63 165.987 102.551 166.282 102.536C166.89 102.507 167.498 102.481 168.106 102.457C168.601 102.436 168.873 102.678 168.884 103.179C168.896 103.747 168.887 104.317 168.887 104.885C168.887 104.885 168.888 104.885 168.89 104.885L168.891 104.884Z" fill="white"/>
<path d="M37.1444 102.554C37.1444 101.369 37.162 100.186 37.1363 99.0036C37.1241 98.4326 37.3029 98.1717 37.9081 98.184C39.3961 98.2127 40.8855 98.2004 42.3748 98.199C42.8311 98.199 43.1655 98.2824 43.1642 98.8683C43.1628 99.4612 42.8636 99.5964 42.3518 99.5882C41.3593 99.5718 40.3655 99.6155 39.3744 99.5841C38.8342 99.5677 38.6257 99.7726 38.6798 100.298C38.6934 100.434 38.6798 100.572 38.6798 100.708C38.6758 102.063 38.6853 102.078 40.0501 101.951C40.727 101.888 41.3986 101.883 42.0756 101.946C42.5211 101.987 42.6416 102.227 42.624 102.63C42.6064 103.045 42.3735 103.172 42.0025 103.17C41.1007 103.162 40.1976 103.175 39.2945 103.157C38.8789 103.149 38.6636 103.278 38.6731 103.737C38.7191 106.066 38.3251 105.65 40.5063 105.689C41.228 105.701 41.951 105.704 42.6727 105.683C43.2116 105.668 43.2888 105.988 43.3145 106.426C43.3429 106.914 43.087 106.99 42.6917 106.994C41.2253 107.012 39.7603 107.057 38.2953 107.072C37.227 107.083 37.1607 107.005 37.1593 105.9C37.1566 104.786 37.1593 103.67 37.1593 102.555H37.1471L37.1444 102.554Z" fill="white"/>
<path d="M122.36 107.149C121.122 107.123 120.099 106.902 119.14 106.386C118.634 106.112 118.554 105.76 118.791 105.259C119.059 104.693 119.419 104.891 119.794 105.098C120.456 105.462 121.166 105.675 121.913 105.755C122.113 105.776 122.323 105.804 122.518 105.77C123.09 105.667 123.677 105.494 123.775 104.823C123.882 104.096 123.287 103.859 122.747 103.676C122.086 103.45 121.397 103.311 120.736 103.084C119.38 102.62 118.727 101.818 118.803 100.774C118.894 99.519 119.928 98.3989 121.236 98.2036C122.311 98.0424 123.351 98.2254 124.327 98.7145C124.722 98.9125 124.977 99.1912 124.84 99.6938C124.704 100.202 124.453 100.412 123.964 100.097C123.247 99.6324 122.451 99.5299 121.627 99.5695C120.988 99.601 120.383 100.038 120.371 100.509C120.353 101.162 120.819 101.487 121.348 101.668C122.094 101.922 122.88 102.064 123.619 102.334C124.95 102.82 125.58 103.714 125.439 104.794C125.283 105.992 124.23 106.97 122.938 107.11C122.692 107.137 122.444 107.144 122.358 107.149H122.36Z" fill="white"/>
<path d="M73.4074 102.625C73.4074 101.397 73.4223 100.169 73.4006 98.9414C73.3911 98.4347 73.5374 98.1847 74.0844 98.1915C75.594 98.2107 77.1051 98.2025 78.6147 98.1929C79.1265 98.1902 79.3364 98.4046 79.3296 98.9346C79.3229 99.4591 79.0764 99.593 78.6134 99.5862C77.6223 99.5725 76.6285 99.6162 75.6387 99.5793C75.07 99.5589 74.8372 99.7105 74.8345 100.332C74.825 102.097 74.8006 102.098 76.5811 101.936C77.166 101.882 77.7482 101.875 78.3345 101.938C78.7935 101.988 78.8639 102.277 78.8449 102.658C78.8246 103.064 78.5985 103.21 78.2248 103.203C77.3014 103.185 76.3766 103.183 75.4532 103.155C75.0213 103.143 74.8453 103.322 74.848 103.759C74.8629 106.114 74.5474 105.647 76.6176 105.689C77.384 105.704 78.1503 105.692 78.9167 105.689C79.4434 105.688 79.4461 106.054 79.4596 106.44C79.4745 106.882 79.2768 107.051 78.853 107.051C77.3217 107.051 75.7904 107.048 74.2604 107.087C73.6335 107.103 73.3654 106.919 73.3925 106.238C73.4385 105.035 73.406 103.829 73.406 102.623H73.4101L73.4074 102.625Z" fill="white"/>
<path d="M127.913 101.469C127.954 102.103 127.79 103.109 128.069 104.093C128.403 105.274 129.071 105.755 130.318 105.702C131.391 105.656 132.114 105.034 132.313 103.929C132.603 102.327 132.403 100.707 132.449 99.0963C132.472 98.2767 132.686 98.095 133.471 98.2412C133.847 98.3109 134.018 98.5035 134.007 98.89C133.956 100.572 134.088 102.257 133.883 103.934C133.677 105.612 132.59 106.759 130.942 107.032C128.474 107.442 126.758 106.11 126.47 103.605C126.287 102.015 126.413 100.424 126.367 98.834C126.349 98.233 126.751 98.2084 127.186 98.2016C127.634 98.1948 127.928 98.3273 127.918 98.8545C127.904 99.6044 127.914 100.356 127.914 101.469H127.913Z" fill="white"/>
<path d="M96.1546 107.115C94.5014 107.113 93.0635 106.052 92.3459 104.243C91.6797 102.565 92.0954 100.558 93.3654 99.3315C94.6016 98.1376 96.5351 97.8043 98.0813 98.5365C98.5972 98.781 99.0399 99.1361 99.3689 99.6128C99.5517 99.8778 99.7182 100.172 99.396 100.462C99.0927 100.736 98.7894 100.938 98.3981 100.581C97.732 99.9735 97.0076 99.5049 96.0409 99.5883C95.4045 99.6443 94.8643 99.8614 94.4351 100.346C92.9376 102.04 93.555 104.976 95.5467 105.663C96.7043 106.061 97.5478 105.491 98.3548 104.779C98.5877 104.573 98.7826 104.293 99.1672 104.47C99.6952 104.713 99.8252 105.153 99.4298 105.62C98.5972 106.605 97.5465 107.154 96.1532 107.115H96.1546Z" fill="white"/>
<path d="M32.3672 107.101C30.5772 107.095 29.1826 106.082 28.461 104.261C27.7881 102.562 28.1956 100.567 29.4629 99.3449C30.7126 98.1388 32.5324 97.8069 34.1138 98.5076C34.5945 98.7207 35.0088 99.0444 35.3351 99.4569C35.6126 99.8093 35.6898 100.186 35.3175 100.554C34.9411 100.925 34.6107 100.753 34.3182 100.466C33.7618 99.92 33.1349 99.5935 32.3347 99.5853C31.4153 99.5771 30.7289 99.95 30.2347 100.718C29.0784 102.51 29.8434 105.113 31.6915 105.677C32.7233 105.993 33.5384 105.583 34.279 104.908C34.4604 104.743 34.6053 104.508 34.872 104.481C35.1834 104.449 35.4583 104.579 35.6397 104.831C35.8266 105.089 35.7413 105.355 35.5531 105.582C34.7217 106.58 33.6683 107.106 32.3672 107.102V107.101Z" fill="white"/>
<path d="M97.8217 111.433C98.9496 111.433 100.077 111.439 101.205 111.43C101.658 111.426 101.931 111.547 101.926 112.083C101.92 112.604 101.842 112.982 101.203 112.965C100.595 112.95 99.984 113.007 99.3761 112.977C98.8467 112.951 98.668 113.139 98.672 113.681C98.6923 115.911 98.6747 118.141 98.6653 120.371C98.6612 121.229 98.5596 121.296 97.7391 121.297C97.1448 121.297 96.9579 121.036 96.9633 120.466C96.9796 118.258 96.9403 116.051 96.9782 113.843C96.9904 113.136 96.7453 112.915 96.0765 112.968C95.4943 113.014 94.9039 112.968 94.3177 112.98C93.7368 112.991 93.7612 112.588 93.749 112.188C93.7368 111.79 93.837 111.527 94.3055 111.531C95.478 111.542 96.6492 111.535 97.8217 111.535C97.8217 111.501 97.8217 111.467 97.8217 111.433Z" fill="white"/>
<path d="M63.1693 102.578C63.1693 101.396 63.1787 100.213 63.1652 99.0311C63.1584 98.4397 63.3669 98.1706 64.0006 98.1883C65.4426 98.2266 66.8859 98.2033 68.3292 98.2047C68.8099 98.2047 69.1741 98.3126 69.143 98.9287C69.1186 99.3849 68.9209 99.5871 68.4728 99.5843C67.4356 99.5816 66.3985 99.6089 65.3613 99.5843C64.8739 99.5734 64.6708 99.7264 64.6816 100.243C64.7223 102.327 64.4068 101.957 66.3687 101.987C66.8196 101.994 67.2704 101.997 67.7213 101.982C68.1938 101.965 68.443 102.156 68.4376 102.655C68.4321 103.126 68.1817 103.29 67.747 103.283C66.936 103.271 66.1236 103.287 65.3126 103.263C64.8468 103.249 64.6667 103.434 64.6803 103.905C64.7047 104.746 64.6762 105.588 64.6938 106.429C64.7047 106.904 64.4799 107.094 64.0399 107.077C63.6296 107.06 63.2004 107.085 63.2058 106.463C63.2167 105.167 63.2099 103.872 63.2099 102.576C63.1963 102.576 63.1828 102.576 63.1706 102.576L63.1693 102.578Z" fill="white"/>
<path d="M54.4664 103.247C54.4664 102.246 54.4528 101.245 54.4731 100.244C54.4826 99.7833 54.3282 99.573 53.8489 99.5962C53.3087 99.6208 52.7671 99.5948 52.2255 99.5962C51.7449 99.5962 51.619 99.3107 51.6162 98.8859C51.6135 98.4789 51.7571 98.2193 52.1917 98.218C54.2673 98.2111 56.3416 98.207 58.4172 98.207C58.7936 98.207 58.99 98.3983 58.9967 98.8012C59.0035 99.2219 58.8898 99.5306 58.4227 99.5552C57.8594 99.5839 57.2948 99.6153 56.7329 99.5948C56.2035 99.5757 56.0207 99.7847 56.0302 100.316C56.0681 102.249 56.0735 104.182 56.0898 106.114C56.0965 106.961 55.907 107.127 55.1054 107.079C54.6451 107.052 54.4718 106.833 54.4758 106.388C54.4867 105.341 54.4785 104.294 54.4785 103.247C54.4758 103.247 54.4718 103.247 54.4691 103.247H54.4664Z" fill="white"/>
<path d="M143.545 103.222C143.545 102.289 143.516 101.356 143.554 100.426C143.58 99.8151 143.396 99.5378 142.754 99.5925C142.284 99.6321 141.808 99.5843 141.335 99.5856C140.811 99.5856 140.707 99.266 140.711 98.8207C140.716 98.3809 140.922 98.2306 141.343 98.2306C143.327 98.2279 145.31 98.2129 147.293 98.1896C147.794 98.1828 148.05 98.374 148.052 98.9027C148.055 99.4094 147.795 99.5843 147.335 99.5829C146.839 99.5802 146.341 99.628 145.848 99.5952C145.294 99.5583 145.097 99.7605 145.105 100.33C145.132 102.285 145.101 104.242 145.125 106.197C145.132 106.742 145.021 107.07 144.401 107.063C143.828 107.056 143.525 106.869 143.546 106.225C143.58 105.226 143.556 104.224 143.556 103.225H143.544L143.545 103.222Z" fill="white"/>
<path d="M135.845 102.556C135.845 101.441 135.844 100.326 135.845 99.2104C135.847 98.2734 135.852 98.3103 136.703 98.2625C137.47 98.2188 137.393 98.7119 137.39 99.2009C137.382 101.067 137.377 102.933 137.374 104.799C137.374 105.689 137.385 105.7 138.292 105.703C139.285 105.707 140.277 105.715 141.269 105.697C141.769 105.689 142.022 105.898 142.068 106.402C142.101 106.764 141.992 106.977 141.604 106.983C139.959 107.007 138.314 107.032 136.667 107.061C136.065 107.071 135.833 106.772 135.844 106.174C135.867 104.968 135.851 103.762 135.851 102.557H135.845V102.556Z" fill="white"/>
<path d="M150.367 102.617C150.367 103.82 150.366 105.024 150.367 106.227C150.367 106.705 150.289 107.09 149.676 107.071C149.129 107.055 148.856 106.836 148.859 106.248C148.871 103.819 148.869 101.389 148.856 98.9602C148.854 98.4234 149.047 98.1816 149.611 98.1816C150.204 98.1816 150.401 98.4357 150.391 99.008C150.368 100.211 150.384 101.415 150.384 102.618H150.366L150.367 102.617Z" fill="white"/>
<path d="M61.2998 102.7C61.2998 103.905 61.2903 105.109 61.3052 106.314C61.3106 106.766 61.2077 107.076 60.6838 107.065C60.2004 107.056 59.7766 107.007 59.7793 106.35C59.7874 103.94 59.7739 101.531 59.7874 99.1211C59.7901 98.6376 59.8267 98.154 60.5416 98.1786C61.0805 98.1964 61.3201 98.3876 61.3107 98.949C61.2903 100.199 61.3039 101.45 61.3039 102.7H61.2998Z" fill="white"/>
<path d="M70.294 102.611C70.294 101.408 70.3089 100.204 70.2872 99.0007C70.2778 98.4707 70.4348 98.1989 71.0076 98.1934C71.5871 98.188 71.8281 98.438 71.8213 99.0075C71.7888 101.483 71.7577 103.958 71.7441 106.433C71.7414 106.922 71.4909 107.075 71.0725 107.068C70.6826 107.061 70.2859 107.073 70.2818 106.492C70.2723 105.198 70.1573 103.906 70.294 102.611Z" fill="white"/>
</g>
</g>
<defs>
<clipPath id="clip0_14174_11981">
<rect width="196.021" height="121.346" fill="white" transform="translate(0.137695 0.171875)"/>
</clipPath>
<clipPath id="clip1_14174_11981">
<rect width="140.788" height="121.346" fill="white" transform="translate(28.1396 0.171875)"/>
</clipPath>
</defs>
</svg>
