<svg width="104" height="122" viewBox="0 0 104 122" fill="none" xmlns="http://www.w3.org/2000/svg">
<path d="M23.3421 71.1353L22.1796 74.6228C22.1643 74.6809 22.1291 74.7319 22.0803 74.767C22.0315 74.8021 21.972 74.8191 21.912 74.8152H19.1438C18.9765 74.8152 18.9263 74.7232 18.9514 74.581L23.7269 60.7983C23.8923 60.3311 23.9744 59.8386 23.9694 59.343C23.9671 59.3226 23.969 59.3019 23.975 59.2822C23.981 59.2626 23.991 59.2443 24.0043 59.2286C24.0176 59.213 24.034 59.2002 24.0525 59.1911C24.0709 59.182 24.091 59.1768 24.1116 59.1758H27.9336C28.0507 59.1758 28.1009 59.1758 28.126 59.318L33.5454 74.6061C33.5956 74.7232 33.5454 74.8152 33.4283 74.8152H30.3171C30.261 74.8235 30.2038 74.811 30.1561 74.7803C30.1084 74.7495 30.0735 74.7025 30.0579 74.6479L28.8703 71.1353H23.3421ZM27.9754 68.1496C27.4987 66.569 26.5369 63.6836 26.0853 61.9859C25.709 63.5832 24.8475 66.2177 24.2287 68.1496H27.9754Z" fill="white"/>
<path d="M34.2734 68.9962C34.2734 65.5756 36.8326 62.7154 41.1983 62.7154C41.3906 62.7154 41.6332 62.7154 41.9928 62.7572V58.057C41.9901 58.0344 41.9926 58.0114 42 57.9899C42.0075 57.9684 42.0197 57.9489 42.0358 57.9328C42.0519 57.9167 42.0715 57.9044 42.093 57.897C42.1145 57.8895 42.1374 57.887 42.16 57.8897H45.1625C45.2879 57.8897 45.313 57.9315 45.313 58.0319V72.1408C45.3041 72.7249 45.3348 73.3089 45.405 73.8887C45.405 74.0058 45.405 74.056 45.2377 74.1062C43.7634 74.7291 42.18 75.0532 40.5794 75.0596C36.9999 75.0596 34.2734 73.0524 34.2734 68.9962ZM41.9928 65.6007C41.7063 65.5106 41.4063 65.471 41.1063 65.4836C40.6555 65.451 40.203 65.5146 39.7787 65.6702C39.3544 65.8259 38.9681 66.07 38.6453 66.3864C38.3226 66.7028 38.0709 67.0842 37.9069 67.5053C37.7429 67.9264 37.6703 68.3776 37.694 68.8289C37.694 71.1874 39.0489 72.2161 40.8721 72.2161C41.2509 72.2308 41.6296 72.1828 41.9928 72.0739V65.6007Z" fill="white"/>
<path d="M59.2295 68.8265C59.2295 72.5732 56.7958 75.0571 53.3752 75.0571C49.2855 75.0571 47.4707 71.9711 47.4707 68.8934C47.4707 65.5062 49.7455 62.7129 53.417 62.7129C57.2474 62.7129 59.2295 65.5982 59.2295 68.8265ZM50.8244 68.8265C50.8244 70.934 51.8029 72.2722 53.4003 72.2722C54.7886 72.2722 55.8424 71.0762 55.8424 68.8767C55.8424 67.0116 55.073 65.4644 53.2581 65.4644C51.8782 65.4811 50.8244 66.7189 50.8244 68.8432V68.8265Z" fill="white"/>
<path d="M64.4569 57.8887C64.6492 57.8887 64.6994 57.8887 64.6994 58.081V62.9736C65.3541 62.7989 66.029 62.7117 66.7066 62.7143C67.4646 62.6765 68.2223 62.7971 68.9311 63.0684C69.6399 63.3397 70.2844 63.7558 70.8235 64.2901C71.3625 64.8245 71.7843 65.4653 72.0618 66.1717C72.3394 66.8781 72.4666 67.6346 72.4355 68.393C72.4355 72.859 68.9061 75.0837 65.2681 75.0837C63.9845 75.0792 62.7093 74.8761 61.4879 74.4815C61.4464 74.4576 61.4116 74.4236 61.3867 74.3827C61.3619 74.3417 61.3478 74.2952 61.3457 74.2473V58.0559C61.3457 57.9305 61.3959 57.8887 61.513 57.8887H64.4569ZM66.1295 65.5244C65.6544 65.5217 65.1814 65.5864 64.7245 65.7167V72.1899C65.0145 72.2608 65.3124 72.2946 65.611 72.2903C66.0785 72.3076 66.5444 72.2252 66.9776 72.0484C67.4108 71.8717 67.8014 71.6048 68.1235 71.2653C68.4455 70.9259 68.6915 70.5218 68.8452 70.0799C68.9989 69.638 69.0567 69.1684 69.0149 68.7024C69.0149 66.528 67.7771 65.5244 66.1044 65.5244H66.1295Z" fill="white"/>
<path d="M77.4287 69.7551C77.5458 71.1183 78.4992 72.2641 80.8409 72.2641C81.847 72.2839 82.8463 72.096 83.7765 71.7121C83.8517 71.6619 83.9186 71.7121 83.9186 71.8292V74.104C83.9186 74.2713 83.9186 74.3382 83.7514 74.3884C82.6044 74.903 81.3524 75.1408 80.0966 75.0825C75.6139 75.0825 74.0332 71.9965 74.0332 69.0359C74.0332 65.7407 76.0655 62.7383 79.8123 62.7383C83.4168 62.7383 84.8302 65.5316 84.8302 67.8901C84.8473 68.4283 84.8052 68.9668 84.7048 69.4958C84.7048 69.5446 84.6854 69.5914 84.6509 69.6259C84.6164 69.6605 84.5696 69.6798 84.5208 69.6798C83.701 69.7609 82.8773 69.7944 82.0536 69.7802L77.4287 69.7551ZM80.5315 67.4385C80.9309 67.4535 81.3308 67.4367 81.7275 67.3883V67.221C81.7189 66.9636 81.6593 66.7105 81.5523 66.4762C81.4452 66.2419 81.2928 66.0312 81.1038 65.8562C80.9148 65.6813 80.693 65.5455 80.4512 65.4567C80.2095 65.368 79.9525 65.3281 79.6952 65.3393C79.1128 65.3227 78.5466 65.5319 78.1148 65.9231C77.6831 66.3144 77.4193 66.8573 77.3785 67.4385H80.5315Z" fill="white"/>
<path d="M0.479686 100.093C0.404489 100.04 0.345314 99.968 0.308711 99.8838C0.272108 99.7996 0.259498 99.707 0.272276 99.6161V96.1005C0.272276 95.945 0.396723 95.862 0.510795 95.945C2.11968 96.9481 3.97623 97.4832 5.87221 97.4902C8.12255 97.4902 8.98328 96.7228 8.98328 95.6857C8.98328 94.6487 8.29885 94.0576 6.28702 93.1969L4.80407 92.5747C1.16412 91.0295 0.158203 89.194 0.158203 86.8918C0.158203 83.6874 2.58484 81.1467 7.29293 81.1467C8.86849 81.0674 10.4426 81.3292 11.9077 81.9141C12.0632 81.997 12.084 82.1215 12.084 82.2978V85.6162C12.084 85.7303 12.001 85.8755 11.8247 85.7614C10.4108 85.0554 8.84079 84.72 7.26182 84.7866C4.98037 84.7866 4.15075 85.554 4.15075 86.5288C4.15075 87.5036 4.77296 88.074 6.9922 88.9554L8.09144 89.4014C12.0321 91.0295 13.121 92.8961 13.121 95.302C13.121 98.8798 10.2173 101.13 5.66481 101.13C3.8795 101.19 2.10464 100.835 0.479686 100.093Z" fill="white"/>
<path d="M29.7642 93.4049C29.7642 98.0507 26.7464 101.131 22.505 101.131C17.4339 101.131 15.1836 97.3144 15.1836 93.4878C15.1836 89.3397 18.0043 85.8242 22.5568 85.8242C27.3064 85.8242 29.7642 89.402 29.7642 93.4049ZM19.3939 93.4049C19.3939 96.0078 20.6072 97.667 22.5879 97.667C24.3094 97.667 25.6161 96.1841 25.6161 93.4567C25.6161 91.1545 24.662 89.2257 22.4117 89.2257C20.6487 89.2568 19.3421 90.7916 19.3421 93.436L19.3939 93.4049Z" fill="white"/>
<path d="M32.4307 80.0784C32.4307 79.9332 32.4929 79.8398 32.721 79.8398H36.2469C36.4543 79.8398 36.5477 79.9332 36.5477 80.0784V96.6707C36.5477 97.5004 36.8173 97.7907 37.5225 97.7907H38.0617C38.1758 97.7907 38.2069 97.7907 38.2069 97.9981V100.539C38.2069 100.777 38.2069 100.84 37.9995 100.891C37.4114 101.101 36.7876 101.193 36.164 101.161C34.0277 101.161 32.4307 100.363 32.4307 97.0752V80.0784Z" fill="white"/>
<path d="M53.1924 97.553C53.1919 98.5718 53.2508 99.5899 53.3687 100.602C53.3687 100.778 53.3065 100.83 53.0991 100.83H49.988C49.7495 100.83 49.6976 100.778 49.6354 100.623C49.5607 100.322 49.5019 100.017 49.4591 99.71C48.3261 100.662 46.884 101.168 45.4043 101.131C42.4384 101.131 40.3955 99.5026 40.3955 95.4167V86.3635C40.3955 86.1561 40.4577 86.125 40.6651 86.125H44.274C44.4503 86.125 44.4814 86.1872 44.4814 86.3635V94.9501C44.4814 96.5471 45.1658 97.5841 46.7939 97.5841C47.6457 97.6101 48.4745 97.3054 49.1065 96.7338V86.3635C49.1065 86.1872 49.1895 86.125 49.3969 86.125H52.985C53.1924 86.125 53.2235 86.1872 53.2235 86.3635L53.1924 97.553Z" fill="white"/>
<path d="M64.4339 100.33C64.4339 100.507 64.4339 100.652 64.2265 100.714C63.3816 101.014 62.4885 101.155 61.5924 101.129C59.0103 101.129 57.5066 99.8534 57.5066 96.8979V89.5558H55.7229C55.5466 89.5558 55.4844 89.4624 55.4844 89.2861V86.3617C55.4844 86.1543 55.5466 86.0921 55.754 86.0921H57.5377C57.5654 84.8949 57.6624 83.7004 57.8281 82.5144C57.8383 82.4465 57.8701 82.3838 57.9186 82.3353C57.9671 82.2868 58.0298 82.255 58.0977 82.2447L61.5613 81.7988C61.7065 81.7988 61.7999 81.7988 61.7999 81.9751C61.7065 82.8981 61.6443 84.6403 61.6443 86.1232H64.3717C64.548 86.1232 64.6102 86.1854 64.6102 86.3617V89.3587C64.6102 89.5039 64.548 89.535 64.4028 89.5661H61.6132V95.9024C61.6132 97.1986 62.0073 97.7897 63.2206 97.7897C63.569 97.7838 63.9162 97.7456 64.2576 97.6757C64.3717 97.6757 64.465 97.6757 64.465 97.8831L64.4339 100.33Z" fill="white"/>
<path d="M66.7139 82.2157C66.7051 81.911 66.7591 81.6078 66.8726 81.325C66.9861 81.0421 67.1567 80.7857 67.3737 80.5716C67.5906 80.3576 67.8493 80.1905 68.1337 80.0808C68.4181 79.9712 68.722 79.9213 69.0265 79.9342C69.3312 79.9144 69.6367 79.9598 69.9225 80.0675C70.2083 80.1751 70.4678 80.3425 70.6837 80.5584C70.8997 80.7744 71.067 81.0339 71.1747 81.3197C71.2823 81.6055 71.3278 81.9109 71.3079 82.2157C71.3277 82.5245 71.2815 82.834 71.1722 83.1235C71.063 83.4131 70.8934 83.676 70.6745 83.8948C70.4557 84.1137 70.1928 84.2833 69.9032 84.3926C69.6137 84.5018 69.3042 84.548 68.9954 84.5282C68.6882 84.5468 68.3807 84.4995 68.0934 84.3894C67.806 84.2793 67.5456 84.1091 67.3295 83.89C67.1134 83.671 66.9467 83.4083 66.8405 83.1195C66.7343 82.8307 66.6912 82.5225 66.7139 82.2157ZM66.9213 86.3638C66.9159 86.3312 66.9184 86.2979 66.9285 86.2665C66.9385 86.2351 66.956 86.2065 66.9793 86.1832C67.0026 86.1599 67.0311 86.1425 67.0625 86.1324C67.0939 86.1223 67.1273 86.1199 67.1598 86.1253H70.7998C70.9761 86.1253 71.0383 86.1875 71.0383 86.3638V100.571C71.0383 100.747 71.0383 100.83 70.7687 100.83H67.2221C67.0147 100.83 66.9213 100.747 66.9213 100.571V86.3638Z" fill="white"/>
<path d="M88.2841 93.4049C88.2841 98.0507 85.2559 101.131 81.0249 101.131C75.9642 101.131 73.7139 97.3144 73.7139 93.4878C73.7139 89.3397 76.5242 85.8242 81.0871 85.8242C85.847 85.8242 88.2841 89.402 88.2841 93.4049ZM77.862 93.4049C77.862 96.0078 79.0753 97.667 81.056 97.667C82.7775 97.667 84.0737 96.1841 84.0737 93.4567C84.0737 91.1545 83.13 89.2257 80.8797 89.2257C79.179 89.2568 77.9138 90.7916 77.9138 93.436L77.862 93.4049Z" fill="white"/>
<path d="M90.9711 89.5589C90.9711 88.5218 90.9089 87.0078 90.8467 86.3544C90.8467 86.2093 90.8467 86.1159 91.0541 86.1159H94.1652C94.2414 86.1148 94.316 86.1385 94.3777 86.1833C94.4395 86.2282 94.4849 86.2919 94.5074 86.3648C94.6282 86.6782 94.7084 87.0058 94.7459 87.3396C95.9102 86.3687 97.378 85.8366 98.894 85.8359C101.175 85.8359 103.872 87.0181 103.872 91.7885V100.572C103.872 100.748 103.809 100.831 103.602 100.831H100.055C99.8481 100.831 99.7547 100.748 99.7547 100.572V92.1307C99.7547 90.3574 98.9873 89.4033 97.4422 89.4033C96.5359 89.3905 95.6582 89.7201 94.9844 90.3262V100.603C94.9844 100.748 94.9014 100.831 94.7252 100.831H91.137C90.9296 100.831 90.8778 100.748 90.8778 100.572L90.9711 89.5589Z" fill="white"/>
<path d="M15.6964 106.176C15.6964 106.037 15.6964 105.988 15.8354 105.988C16.7919 105.988 18.6396 105.914 20.4136 105.914C25.1308 105.914 26.7659 108.53 26.7659 111.081C26.7659 114.858 23.8473 116.469 20.2256 116.469H18.893V121.071C18.893 121.186 18.8439 121.251 18.705 121.251H15.8354C15.7209 121.251 15.6719 121.186 15.6719 121.071L15.6964 106.176ZM18.9175 113.599C19.3181 113.599 19.5716 113.599 20.2256 113.599C22.0732 113.599 23.5366 113.035 23.5366 111.146C23.5366 109.675 22.5392 108.743 20.5036 108.743C19.7596 108.743 19.1301 108.743 18.9175 108.792V113.599Z" fill="white"/>
<path d="M37.4684 118.666C37.4684 119.271 37.4684 119.762 37.5174 120.301C37.5174 120.35 37.5174 120.399 37.4684 120.424C35.8619 121.114 34.1317 121.47 32.3832 121.47C29.7916 121.47 27.666 120.277 27.666 117.571C27.666 115.118 29.8407 113.794 32.9392 113.794C33.3993 113.766 33.8607 113.766 34.3208 113.794V113.63C34.3208 113.189 34.0429 112.159 32.0808 112.159C31.0195 112.148 29.9684 112.365 28.9986 112.796C28.9005 112.796 28.7861 112.796 28.7861 112.674V110.376C28.7786 110.323 28.7912 110.27 28.8215 110.226C28.8518 110.182 28.8975 110.151 28.9496 110.139C30.1047 109.639 31.3538 109.394 32.6122 109.42C35.9804 109.42 37.4684 111.496 37.4684 114.153V118.666ZM34.3208 116.254C33.9327 116.21 33.5424 116.188 33.1517 116.189C31.5166 116.189 30.8136 116.729 30.8136 117.563C30.8136 118.396 31.4022 118.969 32.8738 118.969C33.3642 118.973 33.8523 118.901 34.3208 118.756V116.254Z" fill="white"/>
<path d="M42.7732 109.651C42.838 109.644 42.903 109.662 42.9548 109.701C43.0065 109.741 43.0411 109.799 43.0512 109.863C43.2063 110.283 43.2946 110.724 43.3128 111.171C43.7685 110.629 44.3362 110.192 44.9769 109.89C45.6176 109.588 46.3162 109.428 47.0245 109.422C47.1634 109.422 47.2125 109.463 47.2125 109.61V112.479C47.2125 112.594 47.1634 112.643 46.9999 112.643C46.3753 112.569 45.7422 112.62 45.1374 112.793C44.5326 112.966 43.968 113.256 43.4763 113.649V121.072C43.4763 121.211 43.4273 121.252 43.2638 121.252H40.4596C40.2797 121.252 40.2307 121.186 40.2307 121.047V112.995C40.2307 111.989 40.2307 110.632 40.1162 109.814C40.1162 109.7 40.1162 109.651 40.2552 109.651H42.7732Z" fill="white"/>
<path d="M55.5199 120.858C55.5199 120.997 55.5199 121.111 55.3564 121.16C54.6903 121.396 53.9863 121.507 53.2798 121.487C51.2441 121.487 50.0587 120.481 50.0587 118.151V112.363H48.6525C48.5135 112.363 48.4727 112.29 48.4727 112.151V109.845C48.4727 109.682 48.5135 109.633 48.677 109.633H50.0832C50.1051 108.689 50.1815 107.747 50.3121 106.812C50.3214 106.759 50.3468 106.71 50.3848 106.672C50.4229 106.634 50.4717 106.609 50.5247 106.6L53.2553 106.248C53.3697 106.248 53.4433 106.248 53.4433 106.387C53.3697 107.115 53.3289 108.488 53.3289 109.657H55.4545C55.5935 109.657 55.6425 109.706 55.6425 109.845V112.208C55.6425 112.322 55.5935 112.347 55.479 112.371H53.288V117.367C53.288 118.389 53.5905 118.855 54.547 118.855C54.8218 118.85 55.0955 118.82 55.3646 118.765C55.4545 118.765 55.5281 118.765 55.5281 118.928L55.5199 120.858Z" fill="white"/>
<path d="M57.4809 112.365C57.4809 111.547 57.4319 110.354 57.3828 109.839C57.3828 109.724 57.3828 109.651 57.5463 109.651H59.999C60.0634 109.642 60.129 109.656 60.1843 109.69C60.2396 109.724 60.281 109.777 60.3014 109.839C60.4004 110.085 60.4638 110.343 60.4895 110.607C61.4074 109.842 62.5645 109.422 63.7597 109.422C65.5583 109.422 67.6839 110.354 67.6839 114.115V121.047C67.6839 121.186 67.6348 121.252 67.4713 121.252H64.6753C64.5118 121.252 64.4382 121.186 64.4382 121.047V114.393C64.4382 112.995 63.8332 112.242 62.6233 112.242C61.9085 112.231 61.216 112.491 60.6857 112.97V121.072C60.6857 121.186 60.6121 121.252 60.4731 121.252H57.6444C57.4809 121.252 57.44 121.186 57.44 121.047L57.4809 112.365Z" fill="white"/>
<path d="M73.1363 116.304C73.2589 117.637 74.1909 118.757 76.48 118.757C77.4634 118.776 78.4401 118.592 79.3496 118.218C79.4232 118.177 79.4886 118.218 79.4886 118.34V120.556C79.4886 120.719 79.4886 120.793 79.3251 120.834C78.2035 121.336 76.9799 121.568 75.7524 121.512C71.3704 121.512 69.8252 118.504 69.8252 115.61C69.8252 112.388 71.8118 109.445 75.4744 109.445C78.998 109.445 80.3797 112.176 80.3797 114.49C80.396 115.013 80.3549 115.537 80.257 116.051C80.2533 116.1 80.2323 116.145 80.1978 116.18C80.1633 116.214 80.1176 116.235 80.069 116.239C79.2699 116.31 78.4677 116.34 77.6655 116.329L73.1363 116.304ZM76.1775 114.04C76.5679 114.055 76.9588 114.038 77.3466 113.991V113.827C77.3382 113.576 77.28 113.328 77.1753 113.099C77.0707 112.87 76.9217 112.664 76.737 112.493C76.5522 112.322 76.3354 112.189 76.0991 112.103C75.8627 112.016 75.6115 111.977 75.36 111.988C74.7949 111.978 74.2475 112.185 73.8308 112.567C73.414 112.949 73.1596 113.476 73.1199 114.04H76.1775Z" fill="white"/>
<path d="M85.0484 109.651C85.1128 109.646 85.1768 109.665 85.2281 109.704C85.2794 109.743 85.3144 109.8 85.3263 109.863C85.4783 110.284 85.5638 110.725 85.5798 111.171C86.0354 110.629 86.6032 110.192 87.2439 109.89C87.8846 109.588 88.5831 109.428 89.2914 109.422C89.4386 109.422 89.4794 109.463 89.4794 109.61V112.479C89.4794 112.594 89.4386 112.643 89.2751 112.643C88.6492 112.57 88.0149 112.621 87.4088 112.793C86.8027 112.966 86.2367 113.257 85.7433 113.649V121.072C85.7433 121.211 85.6942 121.252 85.5307 121.252H82.7265C82.5385 121.252 82.4976 121.186 82.4976 121.047V112.995C82.4976 111.989 82.4976 110.632 82.375 109.814C82.375 109.7 82.375 109.651 82.514 109.651H85.0484Z" fill="white"/>
<g clip-path="url(#clip0_14174_12036)">
<path d="M59.5195 0.169922H79.2039V47.3L59.5195 0.169922Z" fill="white"/>
<path d="M45.6486 0.169922H25.9482V47.3L45.6486 0.169922Z" fill="white"/>
<path d="M52.5838 17.541L65.1254 47.3011H56.9053L53.1544 37.824H43.9766L52.5838 17.541Z" fill="white"/>
</g>
<defs>
<clipPath id="clip0_14174_12036">
<rect width="53.2552" height="47.13" fill="white" transform="translate(25.9482 0.169922)"/>
</clipPath>
</defs>
</svg>
