<svg width="384" height="45" viewBox="0 0 384 45" fill="none" xmlns="http://www.w3.org/2000/svg">
<g clip-path="url(#clip0_14174_12020)">
<path d="M22.6895 1.0957L11.8799 20.2256L11.8096 20.3486L11.8799 20.4717L22.6895 39.5986H10.7715L0.854492 22.0508C0.25905 20.9968 0.259164 19.6976 0.854492 18.6436L10.7686 1.0957H22.6895Z" fill="white" stroke="black" stroke-width="0.5"/>
<path d="M200.906 7.0465H209.273C217.792 7.0465 223.145 12.8577 223.145 21.0123C223.145 29.2035 217.795 34.9782 209.273 34.9782H200.906V7.0465ZM209.273 31.5438C215.539 31.5438 219.551 27.7225 219.551 21.0123C219.551 14.3418 215.539 10.4808 209.273 10.4808H204.419V31.5438H209.273ZM225.052 25.4187C225.052 19.9976 228.721 15.2377 234.223 15.2377C239.802 15.2377 243.393 19.254 243.393 25.4187C243.393 25.693 243.354 26.083 243.354 26.083H228.566C228.757 30.139 231.622 32.3239 234.527 32.3239C236.59 32.3239 238.652 31.4646 239.646 29.0481L242.781 30.3737C241.673 33.1041 238.921 35.5998 234.605 35.5998C228.876 35.5998 225.052 31.1903 225.052 25.4187ZM234.148 18.5135C231.551 18.5135 229.485 20.3084 228.799 23.115H239.649C239.536 21.439 238.16 18.5135 234.148 18.5135ZM244.617 15.8624H248.438L253.939 30.6845H254.017L259.596 15.8624H263.339L255.697 34.9751H252.181L244.617 15.8624ZM263.605 25.4187C263.605 19.9976 267.274 15.2377 272.775 15.2377C278.354 15.2377 281.945 19.254 281.945 25.4187C281.945 25.693 281.907 26.083 281.907 26.083H267.118C267.309 30.139 270.175 32.3239 273.08 32.3239C275.142 32.3239 277.208 31.4646 278.199 29.0481L281.334 30.3737C280.226 33.1041 277.474 35.5998 273.157 35.5998C267.426 35.5998 263.605 31.1903 263.605 25.4187ZM272.701 18.5135C270.101 18.5135 268.038 20.3084 267.351 23.115H278.202C278.089 21.439 276.713 18.5135 272.701 18.5135ZM284.775 34.9751V7.0465H288.292V34.9751H284.775ZM310.376 25.4187C310.376 31.23 306.364 35.5998 300.746 35.5998C295.128 35.5998 291.116 31.23 291.116 25.4187C291.116 19.6075 295.128 15.2377 300.746 15.2377C306.364 15.2377 310.376 19.6075 310.376 25.4187ZM306.859 25.4187C306.859 21.0489 303.88 18.5135 300.746 18.5135C297.611 18.5135 294.632 21.0489 294.632 25.4187C294.632 29.7886 297.611 32.3239 300.746 32.3239C303.88 32.3239 306.859 29.7886 306.859 25.4187ZM316.564 32.3239H316.412L316.564 34.9751V43.4009H313.047V15.8624H316.409V18.5135H316.561C317.63 16.7583 319.961 15.2377 322.943 15.2377C327.68 15.2377 331.848 19.5679 331.848 25.4187C331.848 31.2696 327.683 35.5998 322.943 35.5998C319.964 35.5998 317.635 34.0792 316.564 32.3239ZM328.334 25.4187C328.334 21.1281 325.507 18.5135 322.373 18.5135C319.238 18.5135 316.412 21.0489 316.412 25.4187C316.412 29.7886 319.238 32.3239 322.373 32.3239C325.507 32.3239 328.334 29.7094 328.334 25.4187ZM333.797 25.4187C333.797 19.9976 337.466 15.2377 342.967 15.2377C348.546 15.2377 352.137 19.254 352.137 25.4187C352.137 25.693 352.099 26.083 352.099 26.083H337.31C337.501 30.139 340.367 32.3239 343.272 32.3239C345.334 32.3239 347.4 31.4646 348.391 29.0481L351.525 30.3737C350.418 33.1041 347.666 35.5998 343.349 35.5998C337.618 35.5998 333.797 31.1903 333.797 25.4187ZM342.89 18.5135C340.292 18.5135 338.227 20.3084 337.54 23.115H348.391C348.278 21.439 346.902 18.5135 342.89 18.5135ZM354.964 34.9751V15.8624H358.326V18.9828H358.478C359.242 16.7979 361.955 15.3931 363.905 15.3931C365.051 15.3931 365.815 15.5485 366.541 15.8624L365.203 19.2174C364.708 19.0224 364.096 18.9432 363.332 18.9432C360.926 18.9432 358.478 21.0093 358.478 24.5198V34.9751H354.964ZM367.612 30.139L370.747 28.8134C371.741 31.233 373.573 32.4032 375.827 32.4032C378.006 32.4032 379.571 31.3122 379.571 29.7124C379.571 28.7372 378.997 27.6829 377.009 27.177L373.227 26.2415C371.508 25.8118 368.221 24.2912 368.221 20.9361C368.221 17.4652 371.738 15.2407 375.633 15.2407C378.881 15.2407 381.708 16.7613 382.854 19.6867L379.797 20.9727C379.072 19.1778 377.353 18.4374 375.517 18.4374C373.529 18.4374 371.809 19.3332 371.809 20.8935C371.809 22.1032 372.803 22.7645 374.293 23.118L378 24.0139C381.708 24.9098 383.159 27.2502 383.159 29.5905C383.159 32.9852 380.18 35.5968 375.782 35.5968C371.278 35.5999 368.72 32.8694 367.612 30.139ZM83.2834 35.5998C87.9461 35.5998 91.4596 34.0396 94.2119 31.1142C97.0388 28.2284 97.9194 24.1693 97.9194 20.8935C97.9194 19.8787 97.8418 18.9432 97.6895 18.1631H83.2834V22.5329H93.5253C93.2208 24.989 92.4178 26.7839 91.194 28.0333C89.7044 29.5539 87.373 31.233 83.2834 31.233C76.9788 31.233 72.0504 26.0465 72.0504 19.6075C72.0504 13.1716 76.9788 7.98203 83.2834 7.98203C86.6834 7.98203 89.1671 9.34721 91.0029 11.1025L94.0208 8.02163C91.4596 5.52588 88.0596 3.61523 83.2834 3.61523C74.6475 3.61523 67.3877 10.7916 67.3877 19.6075C67.3877 28.4234 74.6475 35.5998 83.2834 35.5998ZM109.561 15.003C103.982 15.003 99.4358 19.3333 99.4358 25.2999C99.4358 31.23 103.982 35.5968 109.561 35.5968C115.141 35.5968 119.687 31.2269 119.687 25.2999C119.687 19.3333 115.141 15.003 109.561 15.003ZM109.561 31.5438C106.505 31.5438 103.869 28.9688 103.869 25.3029C103.869 21.5974 106.505 19.062 109.561 19.062C112.618 19.062 115.254 21.5974 115.254 25.3029C115.254 28.9688 112.618 31.5438 109.561 31.5438ZM131.651 15.003C126.072 15.003 121.526 19.3333 121.526 25.2999C121.526 31.23 126.072 35.5968 131.651 35.5968C137.23 35.5968 141.777 31.2269 141.777 25.2999C141.777 19.3333 137.23 15.003 131.651 15.003ZM131.651 31.5438C128.594 31.5438 125.959 28.9688 125.959 25.3029C125.959 21.5974 128.594 19.062 131.651 19.062C134.708 19.062 137.344 21.5974 137.344 25.3029C137.344 28.9688 134.708 31.5438 131.651 31.5438ZM158.765 15.6277V17.3037H158.613C157.619 16.094 155.708 15.003 153.302 15.003C148.257 15.003 143.633 19.5283 143.633 25.3395C143.633 31.1142 148.257 35.5998 153.302 35.5998C155.708 35.5998 157.619 34.5089 158.613 33.2595H158.765V34.7404C158.765 38.6806 156.702 40.7863 153.377 40.7863C150.663 40.7863 148.983 38.7964 148.296 37.1204L144.436 38.7599C145.544 41.4903 148.487 44.8453 153.377 44.8453C158.574 44.8453 162.968 41.7249 162.968 34.1188V15.6277H158.765ZM153.684 31.5438C150.628 31.5438 148.066 28.9292 148.066 25.3426C148.066 21.7162 150.628 19.062 153.684 19.062C156.702 19.062 159.072 21.7132 159.072 25.3426C159.069 28.9292 156.702 31.5438 153.684 31.5438ZM170.458 4.70616H166.025V34.9751H170.458V4.70616ZM182.61 31.5438C180.356 31.5438 178.75 30.4895 177.72 28.4234L191.21 22.7279L190.75 21.5578C189.909 19.2571 187.35 15.0061 182.114 15.0061C176.917 15.0061 172.601 19.1809 172.601 25.3029C172.601 31.0745 176.882 35.5998 182.613 35.5998C187.237 35.5998 189.912 32.714 191.019 31.0349L187.58 28.6946C186.431 30.4102 184.864 31.5438 182.61 31.5438ZM182.264 18.9828C184.022 18.9828 185.511 19.8787 186.007 21.1677L176.989 24.9891C176.876 21.0093 180.01 18.9828 182.264 18.9828Z" fill="white"/>
<path d="M22.6895 39.5986H10.7715L0.854492 22.0508C0.259084 20.9968 0.25913 19.6976 0.854492 18.6436H0.855469L5.84961 9.80078L22.6895 39.5986Z" fill="white" stroke="black" stroke-width="0.5"/>
<path d="M42.0801 1.0957L51.9971 18.6436C52.5581 19.6318 52.5927 20.8381 52.1016 21.8535L51.9971 22.0537L42.0801 39.6016H30.1621L40.9717 20.4717L41.042 20.3486L40.9717 20.2256L30.1621 1.0957H42.0801Z" fill="white" stroke="black" stroke-width="0.5"/>
<mask id="mask0_14174_12020" style="mask-type:luminance" maskUnits="userSpaceOnUse" x="29" y="0" width="24" height="40">
<path d="M52.2143 18.5201L42.2261 0.845703H29.7334L40.7544 20.3485L29.7334 39.8513H42.2261L52.2143 22.1769C52.8561 21.0463 52.8561 19.6507 52.2143 18.5201V18.5201Z" fill="white"/>
</mask>
<g mask="url(#mask0_14174_12020)">
<path d="M46.7773 31.2812L42.083 39.6016H30.1641L41.041 20.6045L46.7773 31.2812Z" fill="white" stroke="black" stroke-width="0.5"/>
</g>
</g>
<defs>
<clipPath id="clip0_14174_12020">
<rect width="383" height="44" fill="white" transform="translate(0.158203 0.845703)"/>
</clipPath>
</defs>
</svg>
