<svg width="196" height="75" viewBox="0 0 196 75" fill="none" xmlns="http://www.w3.org/2000/svg">
<g clip-path="url(#clip0_14174_12016)">
<path d="M62.9859 27.9727C59.1796 27.9727 54.9307 29.4358 54.0403 34.2522C53.9454 34.7637 54.2849 35.0079 54.6128 35.0826L58.5139 35.5493C58.8751 35.531 59.1197 35.1391 59.1896 34.7704C59.5225 33.1129 60.8889 32.3306 62.4151 32.3306C63.2389 32.3306 64.1642 32.613 64.6519 33.3686C65.2111 34.2107 65.1712 35.355 65.1712 36.3266V36.8979C62.8528 37.1636 59.8004 37.3247 57.6302 38.2996C55.1254 39.4107 53.3662 41.6711 53.3662 44.9944C53.3662 49.2527 55.9808 51.3785 59.3477 51.3785C62.1904 51.3785 63.7615 50.7126 65.9534 48.4206C66.6807 49.5002 66.9137 49.9901 68.2418 51.1194C68.3886 51.203 68.5582 51.2381 68.7262 51.2196C68.8943 51.2011 69.0521 51.13 69.1772 51.0165V51.068C69.976 50.3405 71.429 49.0185 72.2461 48.3177C72.5723 48.0453 72.5008 47.5969 72.2461 47.2282C71.5155 46.1951 70.7383 45.3614 70.7383 43.4398V37.0557C70.7383 34.3519 70.968 31.859 69.0224 29.9972C67.4862 28.4908 64.9298 27.9727 62.9859 27.9727ZM115.412 27.9727C111.604 27.9727 107.358 29.4358 106.466 34.2522C106.371 34.7637 106.709 35.0079 107.039 35.0826L110.94 35.5493C111.301 35.531 111.547 35.1391 111.615 34.7704C111.95 33.1129 113.315 32.3306 114.841 32.3306C115.666 32.3306 116.59 32.613 117.078 33.3686C117.635 34.2107 117.545 35.355 117.545 36.3266V36.8979C115.227 37.1636 112.228 37.3247 110.056 38.2996C107.549 39.4107 105.792 41.6711 105.792 44.9944C105.792 49.2527 108.408 51.3785 111.773 51.3785C114.613 51.3785 116.184 50.7126 118.379 48.4206C119.105 49.5002 119.339 49.9901 120.668 51.1194C120.967 51.2789 121.338 51.2623 121.603 51.0165V51.068C122.402 50.3405 123.855 49.0185 124.672 48.3177C124.996 48.0453 124.922 47.5969 124.672 47.2282C123.941 46.1951 123.164 45.3614 123.164 43.4398V37.0557C123.164 34.3519 123.339 31.859 121.397 29.9972C119.859 28.4908 117.356 27.9727 115.412 27.9727ZM85.9218 28.1803C83.4619 28.1803 81.6378 29.4192 80.6692 32.0732H80.6176V29.3229C80.6044 29.1343 80.5234 28.9568 80.3894 28.8232C80.2555 28.6895 80.0776 28.6086 79.8887 28.5955H76.144C75.9379 28.5985 75.7411 28.6815 75.5953 28.8269C75.4496 28.9724 75.3664 29.1687 75.3634 29.3744V50.3937C75.3811 50.5806 75.4636 50.7555 75.5967 50.8883C75.7298 51.0211 75.905 51.1034 76.0924 51.1211H80.0967C80.303 51.119 80.5003 51.0362 80.6462 50.8906C80.7922 50.745 80.8751 50.5481 80.8772 50.3422V39.1832C80.8772 36.7501 80.7591 33.4218 83.6333 33.4218C86.471 33.4218 86.0782 36.8414 86.0782 39.1832V50.3422C86.0782 50.7391 86.4028 51.0945 86.8072 51.1211H90.8115C91.0179 51.119 91.2151 51.0362 91.3611 50.8906C91.507 50.745 91.5899 50.5481 91.5921 50.3422V39.1832C91.5921 37.989 91.5438 36.2502 91.9566 35.1872C92.3676 34.1243 93.3779 33.4235 94.3498 33.4235C95.5082 33.4235 96.3919 33.827 96.6899 35.2404C96.8763 36.0808 96.793 38.3013 96.793 39.1848V50.3438C96.793 50.7408 97.1176 51.0962 97.522 51.1228H101.526C101.733 51.1206 101.93 51.0379 102.076 50.8922C102.222 50.7466 102.305 50.5498 102.307 50.3438V37.0573C102.307 34.8003 102.535 32.2376 101.267 30.4655C100.147 28.8745 98.3159 28.1819 96.6383 28.1819C94.2849 28.1819 92.0964 29.4209 91.1261 32.0749C90.0043 29.4209 88.4232 28.1803 85.9218 28.1803ZM154.004 28.1803C148.217 28.1803 145.006 33.2574 145.006 39.806C145.006 46.3097 148.182 51.5347 154.004 51.5347C159.604 51.5347 163.157 46.4293 163.157 40.0119C163.157 33.3803 159.939 28.1803 154.004 28.1803ZM176.835 28.1803C174.07 28.1803 172.491 29.5604 171.374 32.4353H171.322V29.2166C171.251 28.8911 170.943 28.6652 170.594 28.6453H166.9C166.71 28.641 166.524 28.7076 166.38 28.8323C166.236 28.9569 166.143 29.1306 166.12 29.3196V50.3389C166.124 50.5356 166.2 50.724 166.335 50.8678C166.469 51.0116 166.652 51.1006 166.849 51.1178H170.802C171.008 51.1148 171.204 51.0318 171.35 50.8863C171.496 50.7409 171.579 50.5445 171.582 50.3389V39.0254C171.582 37.6071 171.702 36.3133 172.258 35.0295C172.707 34.0114 173.574 33.3686 174.546 33.3686C177.306 33.3686 177.043 36.7252 177.043 39.0254V50.4435C177.068 50.6223 177.155 50.7869 177.287 50.9096C177.42 51.0324 177.591 51.1059 177.772 51.1178H181.776C182.169 51.1178 182.51 50.8188 182.557 50.4435V37.2085C182.557 35.174 182.562 32.3472 181.516 30.6682C180.396 28.8562 178.624 28.1803 176.835 28.1803ZM128.778 28.544C128.372 28.544 128.05 28.8662 128.049 29.3229V32.3323C128.05 32.7824 128.362 33.1079 128.778 33.1112H135.643L127.789 44.6854C127.31 45.4312 127.27 46.2765 127.27 46.7615V49.824C127.27 50.2658 127.751 50.7458 128.205 50.4983C132.681 48.0602 138.045 48.2761 142.092 50.4468C142.583 50.7142 143.081 50.2126 143.081 49.7725V46.5539C143.069 46.3166 142.996 46.0864 142.868 45.886C142.741 45.6856 142.562 45.5219 142.352 45.4112C140.055 44.0925 137.389 43.689 134.862 43.7504L141.676 33.7855C142.307 32.8903 142.66 32.3506 142.665 31.9171V29.3229C142.665 28.8761 142.359 28.544 141.936 28.544H128.778ZM154.004 32.4884C155.272 32.4884 156.207 33.0531 156.657 34.5129C157.176 36.1954 157.229 38.2963 157.229 40.0667C157.229 42.7639 157.103 47.2282 154.004 47.2282C150.87 47.2282 150.883 41.701 150.883 39.1317C150.883 36.569 151.055 32.4884 154.004 32.4884ZM65.1179 40.1697V41.0516C65.1179 42.6476 65.1762 43.9912 64.3889 45.4112C63.7532 46.5655 62.7546 47.2796 61.6328 47.2796C60.1017 47.2796 59.188 46.0407 59.188 44.2702C59.1896 40.7792 62.2287 40.1697 65.1179 40.1697ZM117.544 40.1697V41.0516C117.544 42.6476 117.602 43.9912 116.815 45.4112C116.179 46.5655 115.185 47.2796 114.059 47.2796C112.526 47.2796 111.614 46.0407 111.614 44.2702C111.615 40.7792 114.651 40.1697 117.544 40.1697Z" fill="white"/>
<path d="M143.497 51.7969V54.8063H145.525V51.7969H143.497ZM84.6732 52.3151V73.7495H86.5455V71.8296C86.9449 72.5903 87.3993 73.16 87.9502 73.5419C88.4994 73.9239 89.1302 74.1133 89.8225 74.1133C91.1972 74.1133 92.3839 73.4124 93.4108 71.9858C94.4377 70.5591 94.9719 68.4914 94.9719 65.8607C94.9719 64.1384 94.7505 62.7118 94.2962 61.501C93.8418 60.2936 93.2344 59.3951 92.4754 58.8022C91.7165 58.2093 90.8544 57.8688 89.9274 57.8688C89.283 57.862 88.6505 58.042 88.1066 58.387C87.5657 58.7324 87.128 59.2955 86.7019 59.9963V52.3151H84.6732ZM103.918 57.3506C102.506 57.3506 101.386 57.7675 100.589 58.5963C99.7917 59.4233 99.3923 60.4913 99.3923 61.8149C99.3923 62.5839 99.5654 63.2333 99.86 63.8395C100.155 64.4457 100.579 64.9323 101.108 65.2927C101.641 65.6531 102.703 66.1264 104.28 66.6412C105.372 66.9917 106.025 67.2906 106.309 67.5231C106.722 67.8636 106.933 68.3104 106.933 68.9249C106.933 69.6357 106.687 70.2286 106.204 70.6887C105.723 71.152 105.054 71.3629 104.176 71.3629C103.297 71.3629 102.573 71.1172 102.044 70.584C101.514 70.0509 101.228 69.2404 101.108 68.1443L99.0794 68.5595C99.5371 71.8894 101.201 73.5436 104.072 73.5419C105.604 73.5419 106.775 73.1085 107.661 72.1934C108.546 71.2782 109.012 70.0426 109.012 68.5595C109.012 67.759 108.871 67.0648 108.596 66.4835C108.321 65.9022 107.944 65.472 107.451 65.1349C106.957 64.7994 105.855 64.351 104.174 63.7863C102.952 63.3595 102.237 63.0472 101.99 62.8529C101.576 62.5241 101.366 62.0757 101.366 61.5043C101.366 60.9197 101.559 60.4248 101.99 60.0511C102.421 59.6774 103.085 59.4798 103.967 59.4798C105.519 59.4798 106.386 60.3302 106.567 62.0225L108.544 61.7103C108.408 60.6391 108.173 59.7937 107.815 59.2191C107.458 58.6444 106.928 58.1595 106.254 57.8173C105.582 57.4769 104.808 57.3506 103.918 57.3506ZM116.348 57.3506C114.722 57.3506 113.351 58.0183 112.291 59.4267C111.231 60.835 110.73 62.8745 110.73 65.5518C110.73 68.131 111.241 70.1522 112.291 71.5207C113.341 72.8876 114.702 73.5453 116.4 73.5453C117.75 73.5453 118.868 73.1417 119.78 72.2997C120.694 71.4576 121.356 70.2187 121.704 68.5628L119.624 68.1991C119.026 70.32 117.924 71.3613 116.398 71.3646C115.426 71.3646 114.632 70.9527 113.953 70.0675C113.274 69.1806 112.89 67.8653 112.808 66.1231H121.754V65.3956C121.754 62.7765 121.231 60.8101 120.193 59.4267C119.158 58.0432 117.898 57.3506 116.348 57.3506ZM128.674 57.3506C128.188 57.3506 127.764 57.5151 127.374 57.8688C126.985 58.2226 126.542 58.9567 126.075 60.0478V57.6596H124.254V73.1782H126.283V65.0834C126.283 63.954 126.389 62.8679 126.647 61.8647C126.794 61.2901 127.07 60.8367 127.428 60.5162C127.785 60.1956 128.193 60.0495 128.624 60.0495C129.102 60.0495 129.576 60.2405 130.081 60.6208L130.756 58.1811C130.047 57.6164 129.353 57.3506 128.674 57.3506ZM153.534 57.3506C151.928 57.3506 150.605 58.0249 149.581 59.3752C148.561 60.7238 148.02 62.75 148.02 65.4471C148.02 68.1227 148.566 70.1506 149.581 71.5191C150.595 72.8859 151.863 73.5436 153.429 73.5436C154.722 73.5436 155.834 73.0636 156.758 72.0904C157.681 71.1172 158.244 69.6855 158.474 67.8354L156.496 67.5231C156.35 68.8468 156.004 69.7985 155.456 70.4296C154.909 71.0574 154.25 71.3629 153.479 71.3629C152.497 71.3629 151.662 70.9062 151.034 69.9612C150.407 69.0162 150.099 67.5049 150.099 65.394C150.099 63.3479 150.43 61.8714 151.087 60.9297C151.745 59.988 152.582 59.4765 153.584 59.4765C154.253 59.4765 154.824 59.7356 155.3 60.2554C155.779 60.7736 156.097 61.5973 156.288 62.6437L158.266 62.2285C158.028 60.5942 157.502 59.3602 156.653 58.5431C155.804 57.7243 154.774 57.3506 153.534 57.3506ZM165.133 57.3506C163.507 57.3506 162.135 58.0183 161.075 59.4267C160.015 60.835 159.514 62.8745 159.514 65.5518C159.514 68.131 160.025 70.1522 161.075 71.5207C162.127 72.8876 163.487 73.5453 165.184 73.5453C166.531 73.5453 167.651 73.1417 168.564 72.2997C169.476 71.4576 170.139 70.2187 170.488 68.5628L168.408 68.1991C167.81 70.32 166.757 71.3613 165.236 71.3646C164.264 71.3646 163.418 70.9527 162.739 70.0675C162.06 69.1806 161.677 67.8653 161.594 66.1231H170.54V65.3956C170.54 62.7765 170.017 60.8101 168.979 59.4267C167.947 58.0432 166.684 57.3506 165.133 57.3506ZM177.147 57.3506C175.733 57.3506 174.616 57.7675 173.819 58.5963C173.02 59.4233 172.622 60.4913 172.622 61.8149C172.622 62.5839 172.743 63.2333 173.038 63.8395C173.331 64.444 173.754 64.9323 174.286 65.2927C174.816 65.6531 175.882 66.1264 177.458 66.6412C178.547 66.9917 179.254 67.2906 179.539 67.5231C179.952 67.8636 180.163 68.3104 180.163 68.9249C180.163 69.6357 179.917 70.2286 179.434 70.6887C178.955 71.152 178.284 71.3629 177.405 71.3629C176.525 71.3629 175.802 71.1172 175.273 70.584C174.744 70.0509 174.403 69.2404 174.285 68.1443L172.256 68.5595C172.713 71.8894 174.374 73.5436 177.249 73.5419C178.782 73.5419 180.003 73.1085 180.89 72.1934C181.777 71.2782 182.242 70.0426 182.242 68.5595C182.242 67.759 182.1 67.0648 181.826 66.4835C181.551 65.9022 181.123 65.472 180.629 65.1349C180.136 64.7994 179.084 64.351 177.403 63.7863C176.182 63.3595 175.415 63.0472 175.167 62.8529C174.752 62.5241 174.543 62.0757 174.543 61.5043C174.543 60.9197 174.787 60.4248 175.218 60.0511C175.649 59.6774 176.317 59.4798 177.195 59.4798C178.747 59.4798 179.614 60.3302 179.795 62.0225L181.772 61.7103C181.634 60.6391 181.403 59.7937 181.043 59.2191C180.662 58.6179 180.121 58.133 179.482 57.8173C178.815 57.4769 178.036 57.3506 177.147 57.3506ZM130.755 57.6612L135.28 73.1799H137.204L141.729 57.6612H139.649L136.996 67.1594C136.675 68.307 136.392 69.2986 136.215 70.1173C135.994 69.086 135.782 68.0031 135.486 66.9518L132.887 57.6612H130.755ZM143.497 57.6612V73.1799H145.525V57.6612H143.497ZM76.8209 57.8688C75.2116 57.8688 73.9167 58.5896 72.8682 59.9963C71.818 61.4047 71.2555 63.4442 71.2555 66.1214C71.2555 68.7007 71.7748 70.6704 72.8166 72.0372C73.8585 73.4041 75.2448 74.1133 76.9258 74.1133C78.2606 74.1133 79.3507 73.6582 80.2544 72.8162C81.1565 71.9741 81.7806 70.7352 82.1268 69.0793L80.098 68.7671C79.5071 70.888 78.4337 71.9293 76.9258 71.9326C75.9622 71.9326 75.1533 71.5207 74.4809 70.6355C73.8085 69.7486 73.4174 68.4333 73.3359 66.6911H82.1767L82.2283 65.9636C82.2283 63.3445 81.6957 61.3266 80.6672 59.9432C79.6386 58.5597 78.3538 57.8688 76.8209 57.8688ZM53.9883 58.2325L57.6298 73.7512H59.7618L62.155 61.8133L62.5711 64.4606L64.4951 73.7512H66.5755L70.2686 58.2325H68.3446L66.3158 67.2109L65.6401 70.2203L65.016 67.2109L63.2485 58.2325H61.1681L59.2958 67.3155L58.6716 70.5342L57.9427 67.2126L56.0703 58.2342L53.9883 58.2325ZM183.44 58.3887V59.1161H185.417V64.3061H186.198V59.1161H188.175V58.3887H183.44ZM188.954 58.3887V64.3045H189.683V59.2705L191.399 64.3045H192.128L193.844 59.3735V64.3045H194.624V58.3887H193.532L192.128 62.5407C191.986 62.9559 191.885 63.2565 191.815 63.4741L191.502 62.5922L190.097 58.3887H188.954ZM116.295 59.4781C117.305 59.4781 118.137 59.9664 118.792 60.9314C119.241 61.5924 119.532 62.5988 119.624 63.9408H112.915C112.978 62.5789 113.364 61.5276 114.007 60.7221C114.649 59.9166 115.388 59.4781 116.295 59.4781ZM165.081 59.4781C166.088 59.4781 166.923 59.9664 167.577 60.9314C168.027 61.5924 168.318 62.5988 168.41 63.9408H161.701C161.764 62.5789 162.15 61.5276 162.793 60.7221C163.433 59.9199 164.172 59.4781 165.081 59.4781ZM76.8209 60.0495C77.8195 60.0495 78.6217 60.5378 79.2658 61.5027C79.7102 62.1637 80.0064 63.1701 80.098 64.5121H73.4923C73.5556 63.1502 73.8934 62.0474 74.5325 61.2419C75.1666 60.4381 75.9206 60.0495 76.8209 60.0495ZM89.7193 60.0495C90.6214 60.0495 91.3886 60.5494 92.0078 61.5027C92.6269 62.4577 92.8915 63.9291 92.8915 65.967C92.8915 67.9516 92.5986 69.4314 91.9562 70.4312C91.3138 71.431 90.5482 71.9359 89.7193 71.9359C89.1102 71.9359 88.556 71.7317 88.055 71.3131C87.5524 70.8946 87.1846 70.295 86.91 69.4962C86.6354 68.6973 86.4939 67.4683 86.4939 65.8623C86.4939 63.9707 86.8318 62.554 87.4825 61.5542C88.1333 60.5544 88.8905 60.0495 89.7193 60.0495Z" fill="white"/>
<path d="M24.8366 43.5949L17.0876 46.9166L24.2641 49.9791L32.5856 46.9166L24.8366 43.5949ZM13.1864 47.747L12.9268 62.6943L24.2641 67.6768V52.1581L13.1864 47.747ZM36.4868 47.747L26.2413 51.6399V66.275L36.4868 62.123V47.747ZM48.7095 1.24414L40.9072 4.56577L48.1369 7.62832L56.4585 4.56577L48.7095 1.24414ZM37.8914 5.65693V20.6043L47.5644 23.4077L47.8773 9.80897L37.8914 5.65693ZM59.5275 6.48734L50.3738 10.3803V25.0685L59.5275 20.9165V6.48734ZM12.068 22.2817L4.31898 25.6033L11.4955 28.6659L19.817 25.6033L12.068 22.2817ZM0.417835 26.4337L0.158203 41.3811L11.4955 46.3635V30.8449L0.417835 26.4337ZM23.7182 26.4337L13.4727 30.3267V44.9618L23.7182 40.8098V26.4337ZM37.0327 21.7303L29.2836 25.0519L36.4601 28.1145L44.7817 25.0519L37.0327 21.7303ZM25.3825 25.8823L25.1228 40.8297L36.4601 45.8121V30.2951L25.3825 25.8823ZM48.6828 25.8823L38.4373 29.7753V44.4104L48.6828 40.2584V25.8823ZM73.0933 1.24414L65.3442 4.56577L72.5207 7.62832L80.8423 4.56577L73.0933 1.24414ZM61.4431 5.39618L61.1835 20.3435L72.5207 25.326V9.80897L61.4431 5.39618ZM84.7434 5.39618L74.4979 9.28913V23.9242L84.7434 19.7722V5.39618Z" fill="white"/>
</g>
<defs>
<clipPath id="clip0_14174_12016">
<rect width="195" height="74" fill="white" transform="translate(0.158203 0.845703)"/>
</clipPath>
</defs>
</svg>
