<svg width="192" height="37" viewBox="0 0 192 37" fill="none" xmlns="http://www.w3.org/2000/svg">
<path d="M52.9935 9.68899C52.0592 9.78038 48.168 10.639 46.8613 10.9145C45.4606 11.2813 32.6683 21.0183 31.8281 23.4087C31.6413 24.2365 31.5485 25.5096 31.5485 26.7054L31.4544 28.6376C31.4544 30.0163 31.8438 32.2394 32.0293 33.4353C32.8708 33.6194 38.9573 33.4585 40.0771 33.6426L39.9399 36.1154C38.8449 36.0369 31.116 36.0549 26.7008 36.0549C24.4598 36.0549 17.2536 36.2982 15.0401 36.2326L15.4582 33.8807C16.6721 33.788 21.6988 34.0944 22.803 32.9449C23.3518 32.3746 23.1767 31.7631 23.1767 28.4523V26.8895C23.1767 26.1532 23.1767 24.7732 22.9898 23.4847C22.5233 22.1047 11.256 8.24466 8.36168 6.03828C7.52019 5.7628 2.25432 5.24403 0.947657 4.96727L0.882324 2.84842C1.53435 2.5266 7.39083 2.92694 13.0735 2.71969C16.8093 2.58324 25.3314 2.71969 26.3819 2.84327L26.1128 4.70981C24.9929 4.98658 19.5964 5.08827 18.1957 5.45643C21.8373 10.7922 27.5958 17.6598 29.463 20.3283C30.4901 18.8569 39.5178 12.7385 39.7975 10.6235C38.3967 10.3468 33.7594 9.68899 33.012 9.68899L32.569 7.2805C33.8404 7.08483 40.5253 7.2805 43.8481 7.2805C46.7163 7.2805 52.8445 7.2805 54.5863 7.42081L52.9935 9.68899Z" fill="#7B0099"/>
<path d="M56.8954 16.6429L56.8366 16.2773C55.7769 18.7128 53.9789 22.5399 53.6261 23.4667L59.4225 23.4641C58.7156 21.6671 57.4259 18.1503 56.8954 16.6429ZM72.2879 35.0856C71.8763 35.0264 67.1985 35.0277 65.492 35.0277C64.4911 35.0277 59.3951 34.9981 58.5118 34.9981L58.777 32.8445C59.9556 32.7866 62.1443 32.3167 63.1452 32.2009C62.4984 30.7527 60.362 26.1507 59.8916 25.2818C58.6555 25.2818 54.2102 25.4195 52.9741 25.6512C52.7389 26.0567 51.052 27.6877 50.758 29.8902C51.5825 30.064 53.1623 30.3987 54.1044 30.5145L53.7568 32.7158C52.7572 32.6578 48.7666 32.7737 47.8245 32.7158C46.9412 32.7158 42.8409 32.7248 42.0752 32.8406L42.8043 30.5132C43.7451 30.3974 45.9155 29.7332 46.7387 29.5607C47.9748 27.8216 53.6993 16.7999 54.1697 15.7547C53.404 15.5809 52.1039 14.9746 51.2794 14.8587L51.1657 13.2664C52.1666 13.3256 57.1398 13.4723 57.6677 13.4466C58.8515 13.3899 63.2432 13.4105 64.2441 13.3539L63.873 14.9179C62.991 14.9746 61.555 15.3994 60.7305 15.5732C61.1421 16.7909 62.7819 20.7158 64.018 23.6147C64.9602 25.7027 66.5229 29.7937 67.9942 32.1712C68.9938 32.345 71.2897 33.0093 72.3494 33.0659L72.4095 33.6465L72.2879 35.0856Z" fill="#7B0099"/>
<path d="M106.762 29.1192C105.95 29.0574 102.045 29.0626 100.048 29.1192C98.446 29.1642 94.641 28.9763 92.83 29.0535L92.6915 26.8678C93.3161 26.806 97.2125 26.5446 97.96 26.4211C98.2095 25.2535 98.0906 23.5955 98.0906 22.1821L97.9939 19.6075C95.996 19.6075 82.7896 20.2846 82.2277 20.3451L81.2634 20.4687C81.2634 23.9753 81.4502 25.0836 81.7011 26.376C82.7634 26.5588 86.5724 26.806 87.3838 26.9295L87.3341 29.3123C86.3973 29.2505 80.5395 29.3123 78.7271 29.3123C76.5424 29.3123 71.2282 29.2659 69.979 29.3277L70.1489 26.8678C71.1485 26.806 74.9247 26.4391 75.7375 26.3168C75.8629 24.7154 75.9243 22.195 75.9243 19.5496V16.2889C75.9243 15.1819 75.8616 11.983 75.7989 10.8747C74.9875 10.7537 71.2099 10.5039 70.0862 10.4422L69.8862 8.57947C70.635 8.64254 75.8499 8.50094 78.5965 8.50094C81.1575 8.50094 86.9618 8.55115 87.6491 8.48807L87.4452 10.4409C86.2588 10.5027 82.3244 10.8103 81.6384 10.9326C81.4502 11.8569 81.2634 12.6563 81.2634 15.608L81.1719 17.1476C82.2956 17.1476 96.226 17.0935 97.9613 16.8502V14.7301C97.9613 12.0242 98.3872 9.09695 98.0763 8.29627C97.3889 8.11219 93.6676 7.59599 92.4798 7.5342L92.6457 5.56982C93.3958 5.63161 96.9042 5.61102 99.5253 5.67281C102.273 5.67281 106.265 5.78351 107.077 5.66122L106.892 7.27803C106.081 7.33982 102.46 8.2422 102.46 8.2422C102.46 8.2422 102.213 9.92724 102.395 12.3525C102.545 14.3658 102.591 18.3254 102.591 18.3254C102.694 22.7343 102.971 26.2975 102.721 26.4829C102.421 26.703 105.588 26.8935 106.461 27.0171L106.803 27.6015L106.762 29.1192Z" fill="#7B0099"/>
<path d="M133.949 19.3552C134.175 13.1376 129.236 11.4822 122.996 11.9044C119.73 12.1258 113.086 13.8263 113.086 19.3552C113.086 24.8196 118.183 27.7791 124.983 27.1947C130.246 26.7441 133.009 24.8338 133.687 22.1807L133.949 19.3552ZM138.97 18.8415C139.266 26.3554 132.302 30.082 123.257 30.082C119.492 30.082 114.911 29.3753 110.999 27.0634C107.948 25.2586 107.442 22.9196 107.442 19.9924C107.442 13.9422 114.129 8.92697 124.364 8.99134C128.259 8.99134 132.014 9.57705 135.05 11.9083C137.758 13.9898 138.216 15.0222 138.71 17.2994L138.97 18.8415Z" fill="#7B0099"/>
<path d="M181.826 31.4967L179.659 31.3139L179.636 26.6913L182.378 27.0286L184.836 27.1406L184.154 31.6679L181.826 31.4967ZM184.617 23.3303L180.574 22.9441C180.999 20.9295 180.629 5.46807 180.596 3.81908L180.388 0.571289C181.515 0.790125 181.344 0.675559 186.097 1.1673C188.989 1.46594 189.366 1.59467 190.319 1.63071L189.076 5.48224C188.015 8.56268 184.943 22.3017 184.617 23.3303Z" fill="#7B0099"/>
<path d="M171.503 16.7871C171.933 10.0315 165.326 7.57022 158.204 8.05166C154.476 8.30268 147.511 10.4743 147.511 16.7871C147.511 23.0239 153.34 26.1687 161.106 25.5032C167.112 24.987 169.613 22.7613 170.983 19.7427C170.983 19.7427 171.373 18.8416 171.503 16.7871ZM176.891 15.7895C177.425 22.8244 169.183 28.6686 158.854 28.6686C154.558 28.6686 150.901 28.155 146.663 25.3938C143.178 23.1218 141.512 21.1535 141.078 17.2788C140.307 10.4151 148.711 4.64554 160.395 4.7202C164.843 4.7202 169.129 5.38701 172.595 8.05037C175.685 10.4254 176.226 12.6781 176.791 15.2797L176.891 15.7895Z" fill="#7B0099"/>
<path d="M189.134 29.2917H189.552C189.915 29.2917 190.267 29.2736 190.267 28.8501C190.267 28.4858 189.945 28.4434 189.67 28.4434H189.134V29.2917ZM188.727 28.1151H189.736C190.37 28.1151 190.672 28.3635 190.672 28.8682C190.672 29.347 190.365 29.5478 189.964 29.589L190.733 30.754H190.295L189.569 29.6186H189.131V30.754H188.725V28.1151H188.727ZM189.602 31.3668C190.648 31.3668 191.486 30.5287 191.486 29.4371C191.486 28.3455 190.648 27.5075 189.602 27.5075C188.548 27.5075 187.717 28.3455 187.717 29.4371C187.717 30.5287 188.548 31.3668 189.602 31.3668ZM189.602 27.1805C190.846 27.1805 191.894 28.1511 191.894 29.4384C191.894 30.7244 190.847 31.6963 189.602 31.6963C188.352 31.6963 187.311 30.7257 187.311 29.4384C187.311 28.1511 188.351 27.1805 189.602 27.1805Z" fill="#7B0099"/>
</svg>
