<svg width="175" height="32" viewBox="0 0 175 32" fill="none" xmlns="http://www.w3.org/2000/svg">
<path d="M0.696777 0.781662C5.56024 0.781662 10.4976 0.709702 15.3611 0.853623C19.1357 0.925584 22.1125 3.51036 22.6933 6.88555C23.3468 10.8353 21.3862 14.1385 18.1924 15.0717C18.1196 15.0717 18.0469 15.1436 17.9741 15.2156C21.0236 16.0768 22.7648 18.0162 23.3456 21.0328C24.2162 25.9157 21.4577 29.9373 16.3045 30.5119C15.1429 30.6558 13.9813 30.6558 12.8924 30.6558C8.8268 30.6558 4.76238 30.6558 0.769524 30.6558C0.696777 20.673 0.696777 10.7633 0.696777 0.781662ZM7.2299 24.9825C7.30264 24.9825 7.37539 25.0545 7.44814 25.0545C9.48035 25.0545 11.5137 25.1264 13.546 25.0545C15.5782 24.9825 16.8853 23.6895 16.8853 21.8232C16.958 19.9557 15.7964 18.5919 13.7642 18.376C12.4571 18.2321 11.1512 18.3041 9.84408 18.3041C8.97347 18.3041 8.10168 18.3041 7.15832 18.3041C7.2299 20.4583 7.2299 22.6124 7.2299 24.9825ZM7.2299 12.6308C9.11779 12.6308 10.9318 12.6308 12.7469 12.6308C13.1095 12.6308 13.4005 12.6308 13.8358 12.5588C15.1429 12.343 16.0862 11.6257 16.376 10.3327C16.8841 8.25048 15.5054 6.45495 13.3993 6.31103C12.3832 6.23907 11.3671 6.31103 10.3498 6.31103C9.33251 6.31103 8.38915 6.31103 7.37304 6.31103C7.37304 6.52691 7.3003 6.66967 7.3003 6.74163C7.2299 8.75305 7.2299 10.6205 7.2299 12.6308Z" fill="#EE3624"/>
<path d="M117.502 31.1572C116.703 31.0133 115.978 30.9413 115.179 30.7266C109.298 29.2909 106.25 24.2641 106.758 18.7347C107.193 14.0666 109.589 10.6206 114.09 9.03977C120.406 6.81363 127.738 9.83017 128.827 18.0882C128.973 19.2373 128.973 20.3144 129.045 21.4634C126.214 21.4634 123.528 21.4634 120.843 21.4634C118.157 21.4634 115.471 21.4634 112.712 21.4634C113.075 23.4737 114.164 24.9106 115.906 25.6998C118.883 26.9208 121.642 26.2743 124.255 24.6227C124.4 24.5508 124.544 24.4068 124.69 24.336C124.69 24.336 124.763 24.336 124.835 24.336C125.634 25.4851 126.432 26.7061 127.376 28.0699C126.505 28.5724 125.779 29.147 124.907 29.5776C123.383 30.368 121.713 30.7986 119.971 30.9425C119.752 30.9425 119.608 31.0145 119.39 31.0864C118.735 31.1572 118.082 31.1572 117.502 31.1572ZM123.382 17.7296C123.454 15.0729 120.913 12.9906 117.646 13.1334C114.888 13.2054 112.492 15.5754 112.856 17.7296C116.34 17.7296 119.824 17.7296 123.382 17.7296Z" fill="#EE3624"/>
<path d="M140.877 31.1572C139.934 31.0133 138.989 30.8705 138.046 30.5827C133.618 29.3616 130.641 25.6998 130.133 21.1755C129.771 16.9391 131.004 13.2761 134.489 10.6913C139.716 6.5977 150.023 7.53203 152.057 17.2258C152.202 17.8723 152.275 18.5908 152.347 19.308C152.419 20.0985 152.347 20.8157 152.347 21.6781C149.588 21.6781 146.902 21.6781 144.217 21.6781C141.531 21.6781 138.845 21.6781 136.087 21.6781C136.232 22.8991 136.667 23.9042 137.466 24.6227C139.209 26.4182 141.532 26.8488 143.855 26.3463C145.379 26.0596 146.832 25.4851 148.065 24.4068C148.936 25.6998 149.735 26.9196 150.678 28.2126C150.025 28.6432 149.371 29.1458 148.718 29.5056C147.048 30.4387 145.233 30.8705 143.273 31.0852C143.055 31.0852 142.838 31.1572 142.62 31.2291C142.183 31.1572 141.531 31.1572 140.877 31.1572ZM136.231 17.7296C139.716 17.7296 143.345 17.7296 146.83 17.7296C146.975 15.1448 144.434 13.0614 141.24 13.1334C138.409 13.2053 135.941 15.3595 136.231 17.7296Z" fill="#EE3624"/>
<path d="M33.5819 31.1572C32.9284 31.0133 32.2021 30.9413 31.5497 30.7266C27.267 29.7215 24.7256 26.5622 24.7256 22.2526C24.7256 18.0882 24.7256 13.9226 24.7256 9.75818C24.7256 9.5423 24.7256 9.32758 24.7256 8.96777C26.6135 8.96777 28.5002 8.96777 30.4608 8.96777C30.4608 9.18366 30.4608 9.47034 30.4608 9.75818C30.4608 13.7079 30.4608 17.6576 30.4608 21.5354C30.4608 23.3309 30.9689 24.8386 32.7113 25.629C34.5264 26.4902 36.4859 26.4902 38.1556 25.2703C39.3899 24.3372 39.7525 22.9722 39.7525 21.5365C39.7525 17.5868 39.7525 13.7091 39.7525 9.8313C39.7525 9.54462 39.7525 9.32874 39.7525 8.97009C41.6404 8.97009 43.5271 8.97009 45.4877 8.97009C45.4877 9.18598 45.4877 9.47266 45.4877 9.7605C45.4877 13.8541 45.4877 18.0186 45.4877 22.1122C45.4877 27.139 42.3667 30.5142 37.3577 31.0168C37.1395 31.0168 36.9224 31.0887 36.5587 31.1607C35.6153 31.1572 34.598 31.1572 33.5819 31.1572Z" fill="#EE3624"/>
<path d="M87.9551 30.5838C87.9551 20.6022 87.9551 10.7645 87.9551 0.782837C94.9247 0.782837 101.893 0.782837 108.935 0.782837C108.935 1.78796 108.935 2.72229 108.935 3.65546C108.935 4.22998 108.863 4.94843 108.935 5.52295C109.008 6.09748 108.717 6.31336 108.136 6.31336C103.998 6.31336 99.8609 6.31336 95.7225 6.31336C95.36 6.31336 94.8519 6.31336 94.4155 6.31336C94.4155 8.32362 94.4155 10.407 94.4155 12.5612C94.6337 12.5612 94.9235 12.5612 95.2145 12.5612C98.3356 12.5612 101.458 12.5612 104.579 12.5612C105.16 12.5612 105.378 12.7771 105.378 13.3516C105.305 14.9312 105.378 16.5109 105.378 18.0905C101.676 18.0905 98.1185 18.0905 94.4166 18.0905C94.4166 22.255 94.4166 26.3486 94.4166 30.5142C92.2389 30.5838 90.1328 30.5838 87.9551 30.5838Z" fill="#EE3624"/>
<path d="M153.799 30.5838C153.799 30.2971 153.799 30.0812 153.799 29.7934C153.799 23.115 153.799 16.5085 153.799 9.75816C153.799 8.82499 153.799 8.82499 154.743 8.82499C157.864 8.82499 161.059 8.75303 164.253 8.96891C168.753 9.32755 172.238 11.339 173.908 15.7193C175.578 20.1716 174.27 25.2703 170.858 28.071C168.898 29.7226 166.43 30.513 163.889 30.6558C160.622 30.7997 157.356 30.6558 154.088 30.7277C154.016 30.6546 154.016 30.6546 153.799 30.5838ZM159.316 26.0596C160.405 26.0596 161.421 26.0596 162.437 26.0596C166.212 26.0596 168.462 24.0493 168.971 20.3143C169.26 17.6576 167.809 15.0716 165.558 14.1385C163.598 13.2773 161.42 13.7798 159.388 13.6359C159.316 17.8015 159.316 21.822 159.316 26.0596Z" fill="#EE3624"/>
<path d="M57.1024 13.9238C53.7631 13.9238 50.5693 13.9238 47.3016 13.9238C47.3016 12.2722 47.3016 10.6925 47.3016 9.04089C53.1823 9.04089 58.9891 9.04089 64.9426 9.04089C64.9426 9.97406 64.8699 10.8364 64.9426 11.8416C65.0154 12.7028 64.7244 13.3492 64.1436 14.0677C61.2396 17.7296 58.3356 21.3206 55.4328 24.9825C55.2873 25.1984 55.1429 25.3411 54.9247 25.629C58.3368 25.629 61.6761 25.629 65.0154 25.629C65.0154 27.3526 65.0154 28.9322 65.0154 30.6558C59.1346 30.6558 53.255 30.6558 47.23 30.6558C47.23 29.2909 47.23 27.9271 47.23 26.5622C47.23 26.3463 47.4482 26.1315 47.5925 25.9157C50.5693 22.1099 53.5449 18.4468 56.5216 14.6411C56.8126 14.4263 56.8853 14.2824 57.1024 13.9238Z" fill="#EE3624"/>
<path d="M66.6851 13.9238C66.6851 12.4161 66.6851 10.9792 66.6851 9.54346C66.6851 9.39954 66.6851 9.25678 66.7578 9.04089C72.5658 9.04089 78.4454 9.04089 84.3261 9.04089C84.3261 10.3339 84.3261 11.6257 84.3261 12.9906C84.3261 13.2065 84.1079 13.3492 84.0363 13.5651C80.9868 17.3709 78.0112 21.1048 74.9618 24.9825C74.8163 25.1264 74.6719 25.3411 74.4537 25.629C74.8163 25.629 75.0345 25.629 75.3971 25.629C78.2283 25.629 81.1323 25.629 83.9636 25.629C84.4716 25.629 84.7626 25.7729 84.6171 26.2755C84.5444 27.7112 84.6171 29.0761 84.6171 30.5838C78.6648 30.5838 72.784 30.5838 66.8317 30.5838C66.8317 29.1481 66.8317 27.7832 66.8317 26.4194C66.8317 26.2755 66.9772 26.0607 67.1215 25.9168C70.0255 22.255 72.9295 18.5919 75.8324 14.9301C76.0506 14.6434 76.2677 14.4275 76.6314 13.9249C73.2193 13.9238 69.9516 13.9238 66.6851 13.9238Z" fill="#EE3624"/>
</svg>
