<svg width="175" height="30" viewBox="0 0 175 30" fill="none" xmlns="http://www.w3.org/2000/svg">
<path d="M17.5499 15.9678L11.4304 0.150391H0.975586V28.8186H8.50163V9.86392L15.8825 28.8186H19.203L26.5544 9.86392V28.8186H34.0663V0.150391H23.6257L17.5499 15.9678Z" fill="#00AEEF"/>
<path d="M46.087 7.53918C42.8538 7.53918 39.2288 8.48048 36.5172 10.7623L39.0117 15.355C40.7085 13.9425 42.8113 13.1161 44.9129 13.1161C47.6245 13.1161 49.2045 14.3569 49.2045 16.1687V18.237C47.9431 16.6968 45.4486 15.7833 42.6508 15.7833C39.4176 15.7833 35.4009 17.4663 35.4009 22.4873C35.4009 27.1369 39.4176 29.3189 42.6508 29.3189C45.3624 29.3189 47.8994 28.2778 49.2045 26.7376V28.8059H55.9329V15.8251C55.9187 9.39275 51.148 7.53918 46.087 7.53918ZM49.1904 23.4843C48.4942 24.4824 46.9141 24.9966 45.4344 24.9966C43.6939 24.9966 42.0702 24.2259 42.0702 22.5859C42.0702 20.9459 43.6939 20.1752 45.4344 20.1752C46.9283 20.1752 48.4942 20.6465 49.1904 21.6446V23.4843Z" fill="#00AEEF"/>
<path d="M63.6468 14.1142C63.6468 13.3018 64.6911 12.7017 66.2711 12.7017C68.8093 12.7017 71.2153 13.7718 72.4779 14.9836L75.0586 10.291C72.7824 8.65103 69.81 7.53796 66.2275 7.53796C60.4124 7.53796 57.1792 10.7182 57.1792 14.3696C57.1792 22.7994 69.4607 20.1322 69.4607 22.7135C69.4607 23.6119 68.6347 24.1829 66.6181 24.1829C64.1235 24.1829 60.7594 22.7704 59.1935 21.3869L56.3945 26.1085C58.6271 28.0909 62.514 29.3316 66.3124 29.3316C72.3446 29.3316 75.8822 26.4938 75.8822 22.5429C75.8858 14.0284 63.6468 16.3961 63.6468 14.1142Z" fill="#00AEEF"/>
<path d="M90.7925 7.53912C87.2548 7.53912 84.7603 9.12226 83.4989 10.5917V0.150391H76.7705V28.8325H83.4989V15.4258C84.2824 14.4845 85.6016 13.4004 87.5593 13.4004C89.7057 13.4004 91.0544 14.2129 91.0544 16.7524V28.8325H97.7828V14.0284C97.7816 10.2063 95.5915 7.53912 90.7925 7.53912Z" fill="#00AEEF"/>
<path d="M109.454 7.53918C106.221 7.53918 102.596 8.48048 99.8843 10.7623L102.379 15.355C104.076 13.9425 106.178 13.1161 108.28 13.1161C110.992 13.1161 112.572 14.3569 112.572 16.1687V18.237C111.31 16.6968 108.816 15.7833 106.018 15.7833C102.785 15.7833 98.7681 17.4663 98.7681 22.4873C98.7681 27.1369 102.785 29.3189 106.018 29.3189C108.73 29.3189 111.267 28.2778 112.572 26.7376V28.8059H119.3V15.8251C119.286 9.39275 114.529 7.53918 109.454 7.53918ZM112.558 23.4843C111.861 24.4824 110.281 24.9966 108.802 24.9966C107.061 24.9966 105.437 24.2259 105.437 22.5859C105.437 20.9459 107.061 20.1752 108.802 20.1752C110.295 20.1752 111.861 20.6465 112.558 21.6446V23.4843Z" fill="#00AEEF"/>
<path d="M134.583 7.53912C132.263 7.53912 129.987 8.43747 128.334 10.5058V0.150391H121.605V28.8325H128.334V26.4218C130.088 28.4042 132.22 29.3455 134.583 29.3455C139.789 29.3455 143.892 25.4805 143.892 18.4203C143.892 11.6177 139.875 7.53912 134.583 7.53912ZM132.351 23.4842C130.914 23.4842 129.161 22.7565 128.334 21.6446V15.283C129.16 14.17 130.914 13.3865 132.351 13.3865C135.019 13.3865 137.02 15.326 137.02 18.4214C137.034 21.5587 135.019 23.4842 132.351 23.4842Z" fill="#00AEEF"/>
<path d="M151.404 0.150391H144.676V28.8325H151.404V0.150391Z" fill="#00AEEF"/>
<path d="M174.359 19.1063C174.359 12.0599 169.821 7.53918 163.556 7.53918C156.959 7.53918 152.361 12.4023 152.361 18.4215C152.361 25.1672 157.349 29.3467 163.86 29.3467C167.094 29.3467 170.589 28.4484 172.692 26.5937L169.763 22.2575C168.545 23.3705 166.094 24.0263 164.6 24.0263C161.541 24.0263 159.8 22.4722 159.322 20.6314H174.359V19.1063ZM159.235 16.0967C159.496 14.5844 160.627 12.8736 163.556 12.8736C166.659 12.8736 167.746 14.6273 167.921 16.0967H159.235Z" fill="#00AEEF"/>
</svg>
